<?xml version="1.0" encoding="UTF-8" standalone="no"?>
<svg id="svg4619" xmlns:rdf="http://www.w3.org/1999/02/22-rdf-syntax-ns#" xmlns="http://www.w3.org/2000/svg" height="451.55mm" width="373.4mm" version="1.1" xmlns:cc="http://creativecommons.org/ns#" xmlns:xlink="http://www.w3.org/1999/xlink" viewBox="0 0 1323.0846 1599.972" xmlns:dc="http://purl.org/dc/elements/1.1/">
<defs id="defs4621">
<linearGradient id="linearGradient4521" y2="608.44" gradientUnits="userSpaceOnUse" x2="1311.7" gradientTransform="translate(-1898.7 -776.2)" y1="232.88" x1="6.8589">
<stop id="stop7" stop-color="red" offset="0"/>
<stop id="stop9" stop-color="#ff0" offset=".33333"/>
<stop id="stop11" stop-color="#0f0" offset=".5"/>
<stop id="stop13" stop-color="cyan" offset=".66667"/>
<stop id="stop15" stop-color="blue" offset=".83333"/>
<stop id="stop17" stop-color="#f0f" offset="1"/>
</linearGradient>
</defs>
<g id="layer1" transform="translate(1898.7 776.2)">
<path id="path4275" d="m-1476.1-776.18c-4.3995 0.0744-8.8368 0.38293-13.309 0.9414-51.825 6.162-100.62 39.007-138.54 74.25-67.909-24.178-104.97 21.988-115.7 92.67-44.749-11.911-122.35-4.7054-119.41 50.727-79.179 24.795-2.7071 76.693 5.3789 133.6 7.006 47.132-25.867 115.9 16.48 188.39 44.997 77.366 97.343 95.652 365.51 151.56 10.502 1.225 20.905-1.8078 31.045-4.2148 86.556 32.294 126.3-24.108 85.562 74.93-11.905 28.899-49.992 63.167-77.027 130.87 1.428 1.411 2.4855 3.7481 4.7695 3.8711 10.168 0.31 30.506-22.715 45.144-19.301-7.73 11.189-22.315 25.561-14.918 38.742 6.002 8.411 36.343-24.485 51.512-30.992 83.524-35.374 59.658-111.7 80.502-155.08 5.242-3.423 40.428-21.741 105.21-69.064 74.525 15.316 131.99 28.653 187.93 24.467-15.178 7.837-29.192-4.3682-43.381 16.26-35.331-7.438-40.28 16.346-35.869 22.836 5 7.739 19.116-10.832 27.51-4.9199-0.291 3.571-0.3521 7.1512-0.4141 10.74-21.43-2.851-36.32 9.6796-38.707 21.893-4.242 16.216 22.856 2.7176 40.049 2.1426 3.342 2.442 5.8977 5.82 9.1777 8.377 14.925 13.124 44.557 9.7186 59.315-0.39844 64.958-47.85 76.915-17.166 67.057 18.252 0.4 64.066-9.2106 158.34 8.1114 177.45 2.563 2.643 4.7 14.639 9.664 10.078 6.382-5.645 11.094-26.033 12.15-35.842 13.589 44.328 35.495 53.257 40.674-5.5195-0.255 11.683 3.5805 23.243 9.8145 33.039 16.179 27.714 28.65-165.03-2.2754-217.22 14.102-5.841 32.1 14.915 41.564 26.947 60.562 78.527 54.184 153.36 36.16 388.38-7.662 120.42-81.344 303.18-85.801 258.27-7.355-125.85-176.56-131.54-239.2-50.533-33.962 43.657-28.428 128.37 6.666 172.08 46.669 58.405 147.93 78.442 195.79 45.356 154.67-100.97 275.78-463.2 273.46-713.52 5.101-267.47 41.944-309.87-84.541-553.21-39.777-75.368-79.398-155.4-151.75-203.75-12.649-7.895-43.532-40.639-91.275-52.137-63.834-15.829-120.65 11.302-195.89 43.584-74.631 32.391-123.23 59.475-175.29 116.67-36.511-70.86-52.05-142.39-78.688-171.85-32.69-29.346-71.696-50.535-114.22-49.816z" fill-rule="evenodd" fill="url(#linearGradient4521)"/>
<path id="path5" d="m-1476.1-776.18c-4.3995 0.0744-8.8368 0.38293-13.309 0.9414-51.825 6.162-100.62 39.007-138.54 74.25-67.909-24.178-104.97 21.988-115.7 92.67-44.749-11.911-122.35-4.7054-119.41 50.727-79.179 24.795-2.7071 76.693 5.3789 133.6 7.006 47.132-25.866 115.9 16.48 188.39 44.997 77.366 97.343 95.652 365.51 151.56 10.502 1.225 20.905-1.8078 31.045-4.2148 86.556 32.294 126.3-24.108 85.562 74.93-11.905 28.899-49.992 63.167-77.027 130.87 1.428 1.411 2.4855 3.7481 4.7695 3.8711 10.168 0.31 30.506-22.715 45.145-19.301-7.73 11.189-22.315 25.561-14.918 38.742 6.002 8.411 36.343-24.485 51.512-30.992 83.524-35.374 59.658-111.7 80.502-155.08 5.242-3.423 40.428-21.741 105.21-69.064 74.525 15.316 131.99 28.653 187.93 24.467-15.178 7.837-29.192-4.3682-43.381 16.26-35.331-7.438-40.28 16.346-35.869 22.836 5 7.739 19.116-10.832 27.51-4.9199-0.291 3.571-0.352 7.1512-0.414 10.74-21.43-2.851-36.32 9.6796-38.707 21.893-4.242 16.216 22.856 2.7176 40.049 2.1426 3.342 2.442 5.8978 5.82 9.1778 8.377 14.925 13.124 44.556 9.7186 59.314-0.39844 64.958-47.85 76.915-17.166 67.057 18.252 0.4 64.066-9.2106 158.34 8.1114 177.45 2.563 2.643 4.7 14.639 9.664 10.078 6.382-5.645 11.094-26.033 12.15-35.842 13.589 44.328 35.495 53.257 40.674-5.5195-0.2549 11.683 3.5805 23.243 9.8145 33.039 16.179 27.714 28.65-165.03-2.2754-217.22 14.102-5.841 32.1 14.915 41.564 26.947 60.562 78.527 54.184 153.36 36.16 388.38-7.662 120.42-81.344 303.18-85.801 258.27-7.355-125.85-176.56-131.54-239.2-50.533-33.962 43.657-28.428 128.37 6.666 172.08 46.669 58.405 147.93 78.442 195.79 45.356 154.67-100.97 275.78-463.2 273.46-713.52 5.101-267.47 41.944-309.87-84.541-553.21-39.777-75.368-79.398-155.4-151.75-203.75-12.649-7.895-43.532-40.639-91.275-52.137-63.834-15.829-120.65 11.302-195.89 43.584-74.631 32.391-123.23 59.475-175.29 116.67-36.511-70.86-52.05-142.39-78.688-171.85-32.69-29.346-71.696-50.535-114.22-49.816zm6.8223 4.6484c5.1125-0.0631 8.0872 3.2558 7.4844 9.6348-3.024 26.068-33.589-2.5919-11.348-9.0469 1.3898-0.37875 2.6835-0.57333 3.8633-0.58789zm17.926 7.0606c8.0313-0.19517 15.248 9.8083 1.6386 15.922-10.412 5.079-11.738-11.281-4.1347-15.518 0.8261-0.25406 1.6652-0.38411 2.4961-0.4043zm-43.531 2.3789c4.6714-0.14071 9.826 3.2122 9.6895 8.1562-0.178 8.707-7.0105 16.543-12.062 13.059-5.59-3.882-6.2819-16.782-0.7129-20.535 0.9555-0.42806 2.0079-0.64721 3.0859-0.67968zm71.742 2.9258c1.7935 0.0357 3.5701 0.72328 4.7461 2.1445 11.822 13.965-7.8995 24.4-17.06 14.408-4.491-4.918 2.4111-14.517 10.537-16.375 0.5797-0.13 1.1795-0.18962 1.7773-0.17773zm-94.158 0.57812c10.275 0.60903 5.4694 26.497-12.66 20.533-7.182-2.42-1.9976-15.795 8.9844-19.848 1.3877-0.54131 2.6128-0.74855 3.6758-0.68555zm-29.328 9.3652c3.3718 0.0424 6.594 5.0838 5.7715 12.217-2.41 18.238-23.463-5.3849-7.2149-11.922 0.4765-0.2065 0.9617-0.30097 1.4434-0.29492zm147.64 3.5371c5.2213-0.27656 10.433 10.37-0.5293 13.723-10.02 3.758-8.8777-9.8756-0.5117-13.518 0.3434-0.12094 0.6929-0.18665 1.041-0.20508zm-170.9 5.8926c6.3453-0.0994 8.4259 6.1833 7.7539 13.332-3.923 30.248-33.428-6.1148-10.74-12.883 1.0849-0.29075 2.0799-0.43501 2.9863-0.44921zm107.89 2.8262c3.2941 0.0415 6.6664 1.6414 8.3066 4.4922 2.241 6.376-9.0142 15.005-16.365 13.104-6.679-1.818-2.5166-13.402 4.8574-17.105 1.014-0.344 2.1031-0.50406 3.2012-0.49023zm-29.387 5.1055c13.215 0.59741 6.6564 23.973-2.2149 17.383-6.069-4.314-8.101-14.993-2.539-16.779 1.8096-0.48412 3.3868-0.66532 4.7539-0.60351zm106.59 1.4805c3.165-0.0197 6.0996 2.5201 7.8985 5.0137 9.759 13.403-4.2174 20.188-10.775 18.516-7.391-3.009-6.6589-19.378 0.6601-23.074 0.744-0.30918 1.4864-0.45052 2.2168-0.45508zm-47.758 2.3281c1.9976-0.0271 3.9831 0.34414 5.6094 1.5566 8.55 8.615-9.1556 17.124-17.434 10.379-3.548-2.776-1.7279-9.2458 8.2891-11.551 1.134-0.20813 2.3365-0.36851 3.5351-0.38477zm-90.523 0.33203c16.501 0.15493 20.429 18.734 2.164 18.604-3.474-4.047-7.4597-8.3755-7.9707-13.939-0.264-2.425 1.7999-4.5331 4.1719-4.6211 0.5581-0.0346 1.1025-0.048 1.6348-0.043zm-70.818 4.7949c8.6757-0.61911 7.6364 18.499 5.5664 22.652-2.478 5.772-10.903-4.6778-15.254-6.5938-5.907-1.93-0.6967-12.753 7.8203-15.66 0.6673-0.227 1.2888-0.35716 1.8672-0.39844zm183 7.541c8.3404-0.17197 10.055 23.61-0.037 20.34-8.738-2.644-13.756-15.926-1.7188-19.971 0.6134-0.2395 1.1998-0.35768 1.7559-0.36914zm-135.06 0.45117c6.709-0.0972 9.8575 4.7319 9.1015 12.156-2.047 18.096-30.692-7.7926-12.193-11.807 1.1027-0.22175 2.1333-0.33572 3.0918-0.34961zm600.65 5.8965c1.5242 0.006 3.0276 0.20136 4.4688 0.74024 9.37 8.18-12.534 50.955-22.141 76.932-2.781 6.823-12.954 11.829-17.891 12.846-21.002 5.301 10.82-81.697 11.438-82.697 4.788-3.677 10.633-5.8458 16.523-7.0098 2.4631-0.30812 5.0613-0.82097 7.6016-0.81055zm-419.74 3.2422c1.8657 0.10452 3.735 0.95344 5.2344 2.0391 14.949 10.835-3.5624 20.859-12.609 16.18-5.937-3.071-2.1224-14.124 4.0996-17.494 1.038-0.582 2.1559-0.78732 3.2754-0.72461zm-298.56 2.7676c8.736-0.19087 6.5504 12.34-0.4277 14.242-5.918 0.113-12.487-10.253-4.002-13.314 1.7117-0.61462 3.1817-0.90046 4.4297-0.92773zm677.48 0.80273c15.598 0.6016-9.0099 73.772-19.186 84.305-24.446 10.259 0.5172-51.603-4.7598-65.795 5.776-6.26 11.841-12.433 19.08-17.018 1.9326-1.0737 3.5433-1.5432 4.8652-1.4922zm-587.77 1.1777c10.18-0.0874 12.596 12.303-2.9121 11.17-8.778-0.868-5.3854-8.8748-0.4844-10.715 1.208-0.30488 2.3433-0.44604 3.3965-0.45508zm-38.529 0.95703c1.9229-0.0338 3.8553 0.987 5.2773 2.25 11.56 9.273 0.9568 20.028-5.3262 15.773-3.739-2.887-6.0625-15.062-1.8515-17.607 0.6195-0.2755 1.2594-0.40474 1.9004-0.41602zm696.16 3.3047c22.145-0.68395 0.94315 36.465-21.107 77.084-23.203 41.696-7.6658-26.39 4.0742-72.592 7.3439-2.9397 12.932-4.3655 17.033-4.4922zm-537.65 0.5039c5.7124-0.11401 7.6756 11.5 2.1133 15.504-8.214 3.388-18.399-8.0746-4.7793-14.682 0.9581-0.55138 1.8499-0.80598 2.666-0.82227zm-232.06 0.0566c9.6497-0.45465 5.212 17.576-1.8985 17.008-11.304-0.048-14.582-11.184-1.5605-16.232 1.3124-0.48375 2.4607-0.72836 3.459-0.7754zm35.883 10.082c3.2954-0.0745 6.8297 1.2555 7.7949 4.5098-0.079 4.311-4.3119 8.216-8.5879 8.084-4.744-1.182-7.7163-9.8743-2.3203-12.07 0.9413-0.3175 2.0148-0.49861 3.1133-0.52343zm25.012 1.2012c4.8134-0.14244 7.7111 9.9388 3.6094 14.109-8.793 6.105-16.922-7.9067-5.1582-13.721 0.5333-0.25144 1.0509-0.37394 1.5488-0.38867zm741.68 1.7793c34.107 0.42144-13.85 50.46-18.342 81.748-48.811 7.951-14.277-43.902 4.9823-80.211 5.4237-1.0941 9.8311-1.5807 13.359-1.5371zm-540.14 0.20313c11.152-0.18314 9.343 23.319-3.7188 17.619-9.907-4.225-10.615-12.805-0.1601-16.742 1.4329-0.58443 2.7252-0.858 3.8789-0.87695zm37.891 0.002c4.6321 0.19656 5.7937 11.448-0.09 16.084-5.323 3.919-14.222-9.6844-2.0976-15.439 0.7928-0.47462 1.5257-0.67261 2.1875-0.64453zm358.83 0.83008c9.0914 0.34397 14.959 33.001 5.3242 55.822-6.648 15.616-20.845 17.828-24.045 16.408-7.535-4.613 1.7919-30.039 3.2539-45.232-0.436-6.168 6.3896-21.86 12.557-26.02 0.9959-0.70265 1.9697-1.0141 2.9102-0.97851zm-492.54 0.78711c5.1905-0.14517 9.9283 4.2278 10.623 9.4043 4.354 16.53-44.683 1.7243-12.863-9.0547 0.7495-0.216 1.4988-0.32887 2.2403-0.34961zm171.19 0.80273c2.626-0.11526 5.4323 0.62181 6.2266 3.3203-0.027 8.764-11.002 13.959-18.4 10.229-4.117-2.315-0.8486-10.495 9.6894-13.191 0.7538-0.18725 1.6091-0.319 2.4844-0.35742zm-150.94 0.29297c4.2495 0.0854 8.6047 2.7284 10.219 6.6172 1.137 6.009-5.0787 15.431-11.092 9.6465-3.843-4.341-8.2184-12.829-3.2364-15.449 1.2873-0.58875 2.6929-0.84292 4.1094-0.81445zm-209.71 1.6055c7.7345-0.0755 13.304 15.94-0.2032 13-5.952-0.926-5.6962-9.9908-1.3672-12.76 0.5299-0.15843 1.0547-0.2352 1.5704-0.24023zm40.625 3.6348c4.1479 0.0694 5.5746 7.5881 2.1464 10.828-5.091 2.58-13.607-5.1664-4.7168-10.025 0.9413-0.5725 1.8022-0.81557 2.5704-0.80273zm606.79 0.20312c12.45-0.0432 19.127 57.164-3.5664 70.311-30.448 15.475-1.5623-33.285-10.07-48.117 1.922-6.392 4.0656-12.908 8.0156-18.375 1.9455-2.6382 3.8425-3.8122 5.6211-3.8184zm-419.21 1.1035c4.104 0.14165 9.9133 4.2484 10.051 10.758-1.675 3.015-5.7486 2.4846-8.6406 3.1816-2.504-2.69-4.9383-5.8092-5.3613-9.5742-0.36-3.1072 1.4888-4.4502 3.9511-4.3652zm-78.305 1.8984c7.9518-0.30889 16.404 4.5197 13.922 8.6016-3.318 5.813-9.9487 16.847-14.346 11.842-2.481-2.653-11.141-17.877-2.9199-19.979 1.0823-0.271 2.2078-0.42072 3.3438-0.46484zm470.49 5.6387c6.7576 0.74374 12.353 53.083-0.9922 68.811-16.947 4.557-7.3461-62.181-0.3691-68.246 0.4555-0.43518 0.9108-0.61403 1.3613-0.56445zm238.82 0.16992c20.743-0.22646 6.7853 43.597-13.625 76.385-6.939 1.199-14.25 2.4151-21.145 0.36914-23.921-6.698 13.03-63.157 19.496-71.746 6.4007-3.413 11.432-4.9659 15.274-5.0078zm-605.12 0.47852c3.5308 0.10931 7.0113 1.6936 9.8418 3.7441 9.858 7.58-1.7051 16.101-7.8301 13.129-8.947-4.392-12.863-14.687-5.5371-16.453 1.166-0.3285 2.3484-0.45636 3.5254-0.41992zm112.51 2.8789c5.5298 0.007 11.4 10.336 6.3867 13.871-10.521 6.521-18.107-6.2524-8.7031-13.191 0.7434-0.47025 1.5264-0.68063 2.3164-0.67969zm-303.97 0.53711c1.9766 0.13044 4.2355 0.95352 6.7637 2.7441-8.478 27.727-17.089 6.553-15.58 3.5 1.4843-3.4684 4.4677-6.5311 8.8164-6.2441zm-37.225 2.4844c7.9129 0.0606 6.1758 11.348-2.6817 12.736-5.44 0.724-4.7552-10.431 0.9688-12.592 0.614-0.102 1.1853-0.14857 1.7129-0.14453zm93.688 2.4922c3.7382 0.0591 7.479 1.3678 10.436 3.623 10.166 7.624-6.7693 19.208-15.986 15.139-6.065-3.003-5.7333-16.878 1.8437-18.393 1.2168-0.269 2.461-0.38885 3.7071-0.36915zm-130.62 0.16407c5.3388 0.35159 9.2646 11.952 0.7168 14.107-5.101-0.294-6.6322-11.2-2.4062-13.834 0.5703-0.22734 1.1371-0.3098 1.6894-0.27343zm605.29 0.44922c10.776 0.53865 24.49 52.961-3.6699 67.922-11.837 6.115-7.4102-8.0727-5.6172-31.303 0.091-1-1.2125-30.484 7.1855-36.01 0.679-0.45175 1.3832-0.64528 2.1016-0.60937zm-409.65 0.43554c4.0751-0.0661 8.1716 1.3713 11.736 3.2695 19.748 11.105-3.9399 22.73-14.584 12.883-5.795-5.309-8.6423-13.238-1.1993-15.547 1.3335-0.3945 2.6885-0.58342 4.0469-0.60547zm43.227 1.916c1.5462 0.0948 3.0145 1.0893 3.7675 2.4648 7.787 14.132-9.0583 22.69-12.193 16.365-3.124-5.586 0.8349-16.596 6.8769-18.605 0.5093-0.18725 1.0334-0.25622 1.5489-0.22461zm78.039 0.18555c5.8957-0.0694 12.131 2.5493 12.369 11.186 0.681 29.569-39.167-4.1768-17.918-10.344 1.6553-0.497 3.5836-0.81865 5.5488-0.84179zm38.984 2.6348c5.1222 0.31827 8.4897 11.362 2.375 14.447-11.188 5.986-14.278-6.8234-5.3516-13.4 1.0199-0.79532 2.0281-1.1058 2.9766-1.0469zm223.46 6.9219c8.263-0.26814 19.523 8.4798 7.9746 38.793 0.107 10.323-0.1614 30.601-10.732 26.752-18.352-6.197-16.474-60.888 0.3183-65.188 0.7621-0.20681 1.5847-0.32969 2.4395-0.35742zm320.35 2.3359c14.983 0.41293 26.246 18.482-2.3457 38.953-2.898 13.813-11.268 31.671-24.108 28.893-21.954-4.767 7.0934-57.528 11.568-61.809 4.4832-4.3505 9.8903-6.1748 14.885-6.0371zm-841.17 0.20899c2.671 2.619 6.7451 5.3699 6.1191 9.6289-1.57 3.615-6.5144 4.3911-9.9004 3.2891-2.513-1.852-4.8515-5.0532-4.2695-8.3242 1.208-3.236 5.0878-3.8698 8.0508-4.5938zm-32.678 2.2676c5.9228-0.4356 9.9082 12.434-2.1504 14.564-5.585 0.701-5.3563-9.9996 0.2657-13.977 0.6385-0.35644 1.272-0.54283 1.8847-0.58789zm65.396 0.45312c7.3988-0.19201 17.204 4.9393 17.17 15.918-12.765-2.115-19.729 6.1179-24.15 18.006-3.698-5.561-5.2427-22.662-0.4667-30.412 1.219-2.2384 4.0841-3.4244 7.4472-3.5117zm191.89 0.89258c7.4924-0.0666 10.098 11.12 5.0958 18.465-12.235 2.391-25.956-12.651-7.5743-18.066 0.8767-0.26447 1.7035-0.39155 2.4785-0.39844zm-119.65 0.48828c1.6464-0.002 3.2891 0.435 4.7441 1.25 4.435 2.328 10.378 1.4819 13.984 5.3789 0.868 4.756-15.76 8.7312-22.449 8.1992-4.937-2.76-4.9801-12.431 0.7949-14.336 0.9488-0.33038 1.938-0.49079 2.9258-0.49219zm-168.44 3.1504c9.0439 0.13251 5.4414 13.953-3.9727 14.906-6.349-1.04-7.5753-12.61-0.6973-14.047 1.8282-0.61713 3.378-0.87831 4.67-0.85938zm390.46 0.36328c4.3853-0.0146 7.7909 4.9584 8.084 9.1016 0.864 12.168-30.261-2.0454-10.018-8.7734 0.6603-0.22263 1.3072-0.32604 1.9336-0.32813zm-175.43 1.1895c4.3862-0.13529 9.7459 2.6243 9.8359 13.361-27.292 13.831-20.959-9.0782-13.666-12.449 1.0143-0.5005 2.368-0.86702 3.8301-0.91211zm-73.305 2.457c4.6198 0.15981-1.5799 10.335-5.4297 16.221-22.203-2.013-2.1852-14.747 3.6328-15.932 0.7241-0.21366 1.319-0.3056 1.7969-0.28906zm413.04 1.3203c11.198-0.35361 20.425 49.806 4.3515 62.084-15.423 11.244-26.191-53.165-5.4394-61.891 0.3645-0.1195 0.7267-0.18195 1.0879-0.19336zm376.38 4.3516c13.344-0.54773 25.06 19.777-4.4238 46.129-1.984 4.735-2.8564 10.069-5.9864 14.328-8.344 12.99-22.534 6.9214-24.142-5.9336-2.108-15.281 11.647-24.39 12.344-27.723 2.75-10.796 8.6663-23.749 19.529-26.408 0.8923-0.22644 1.7901-0.35606 2.6797-0.39258zm-561.63 2.1484c6.6677-0.40861 13.7 12.207 5.6582 13.355-6.46 2.215-11.436-9.5662-7.6992-12.785 0.6649-0.34819 1.3513-0.52804 2.041-0.57031zm-124.31 0.25c2.8088 0.0156 5.5771 1.4515 7.7266 3.2305 8.449 7.236-0.6089 16.35-7.3789 14.408-7.764-2.598-10.012-14.878-3.1485-17.141 0.9235-0.3505 1.8646-0.50324 2.8008-0.49805zm67.568 1.3652c5.1609-0.0304 10.86 4.6733 8.6601 10.111-4.183 17.616-20.329-1.0182-12.045-9.2852 1.03-0.56044 2.1938-0.81916 3.3848-0.82618zm-262.62 0.82032c4.6823 0.001 10.359 7.3784 7.9922 11.521-7.16 7.585-16.719-5.3581-9.9121-11.039 0.602-0.33175 1.251-0.48262 1.9199-0.48242zm67.58 4.3086c4.8389-0.015 2.5493 7.0829-13.598 22.316-9.559-4.492-7.5322-9.9469 1.0938-16.586 5.4797-3.7644 9.9692-5.7226 12.504-5.7305zm60.521 1.1465c4.2572-0.004 8.3382 2.0021 9.4688 6.5156-0.67 0.723-1.341 1.4555-2.002 2.1875-6.578-1.781-12.38 2.5561-18.605 3.7461-0.432-3.139-0.3605-6.7543 2.1875-9.0293 2.222-2.1989 5.64-3.417 8.9511-3.4199zm346.7 3.2031c2.9604 0.13447 5.5565 2.6749 7.2968 4.9531 24.285 33.073-6.8318 66.672-11.965 50.479-2.804-8.428-10.681-49.367 2.5664-55.107 0.7159-0.258 1.4184-0.35525 2.1016-0.32422zm-119.38 0.91016c4.2101-0.15123 4.9977 8.6361 0.373 12.137-6.427 2.712-11.811-9.4554-1.2617-11.982 0.3105-0.0937 0.608-0.14421 0.8887-0.15429zm-200.26 2.2793c5.7797 0.003 16.132 3.3954 36.254 16.25-9.382-0.37-18.772-0.50242-28.145 0.0176-5.114-4.567-10.423-8.9681-16.295-12.539 1.5459-1.0969 3.0859-3.7314 8.1855-3.7285zm-63.023 0.55078c5.71-0.0805 11.463 2.4548 14.262 8.752-6.19 3.315-11.446 8.1634-15.52 13.859-4.938-3.306-8.8525-7.8542-13.728-11.24 0.309-2.584 1.0944-5.2396 3.1484-6.9766 2.9825-2.6884 7.3968-4.3319 11.838-4.3945zm604.21 1.207c1.4064 0.043 2.7754 0.39763 3.9394 1.2656 13.337 9.854-0.1334 22.232-13.691 12.793-5.877-4.014-2.9302-10.739 5.5898-13.455 1.3135-0.379 2.7557-0.64652 4.1621-0.60352zm-362.81 1.8555c4.9003-0.24796 10.218 5.3751 7.7793 10.281-3.903 12.895-16.314-3.0469-9.8301-9.7949 0.6591-0.29425 1.3508-0.4509 2.0508-0.48633zm332.52 0.86719c17.313-0.11275 0.4751 24.342-5.7481 13.084-4.24-7.729-1.7896-11.689 1.8164-12.715 1.471-0.24375 2.7775-0.36162 3.9317-0.36914zm-687.41 0.98828c3.4561-0.0498 6.7535 2.3979 9.0098 4.8906 7.701 8.366-2.5163 15.354-10.861 14.09-7.285-1.205-6.8427-15.149-0.5567-18.516 0.8035-0.3075 1.6107-0.45335 2.4082-0.46485zm-104.42 1.0801c4.174-0.01 8.3944 1.4729 11.504 4.2598 9.971 8.446-11.194 28.008-20.139 20.184-6.1-5.948-3.1294-22.487 5.7676-24.195 0.944-0.1635 1.9039-0.24579 2.8672-0.24805zm257.71 0.76172c0.3016 0.007 0.6057 0.0275 0.9121 0.0605-2.239 3.703-4.461 7.4409-7.168 10.836-2.513-2.451-4.7524-5.1403-6.7714-7.9883 4.4803-0.38906 8.5028-3.0172 13.027-2.9082zm597.47 0.96484c5.9563 0.21945 10.342 11.814 4.5039 13.582-8.795 1.935-18.206-9.3347-6.3926-13.262 0.64022-0.24422 1.2725-0.34302 1.8887-0.32032zm-586.04 0.40039c4.876 2.186 9.5922 4.77 13.869 7.998-4.709 0.608-9.4517 1.3928-13.764 3.4648-1.49-3.695-1.5515-7.7419-0.1055-11.463zm219.63 0.41797c7.3092 0.1471 8.7826 14.754-3.6543 14.006-5.427-0.613-3.5548-11.379 2.1172-13.834 0.5367-0.12757 1.0498-0.18168 1.5371-0.17188zm-143.75 0.0234c3.1903-0.0435 6.4438 1.033 8.6855 3.3144 4.399 4.718-3.6401 14.299-10.537 13.941-6.373-0.496-8.5143-14.746-1.2773-16.842 1.0095-0.26025 2.0655-0.39958 3.1289-0.41406zm424.29 2.4844c4.8829-0.22186 9.6472 4.8369 9.3828 9.6641-1.508 4.444-7.6892 4.2228-11.242 2.5918-5.131-2.142-3.4022-10.042 0.8828-12.141 0.3251-0.0634 0.651-0.10044 0.9766-0.11523zm-536.14 1.959c0.591 3.069 1.1644 6.1367 1.6934 9.2227-3.959 3.518-9.5495 4.6196-14.478 2.5566 3.386-4.77 7.7691-8.7723 12.785-11.779zm164.19 0.0117c5.6678-0.0937 7.6154 3.3467 5.7656 8.4961-7.888 20.323-22.509-5.3504-8.4219-8.2344 0.9614-0.163 1.8466-0.24833 2.6563-0.26172zm348.31 0.79492c7.7364 0.34067 8.5126 12.987 3.0606 15.973-8.171 1.623-15.288-14.584-5.6856-15.66 0.9501-0.25247 1.8247-0.34774 2.625-0.3125zm284.21 0.45703c11.988 0.0632 25.809 9.074 0.8516 34.094-2.089 7.301-4.9635 15.262-11.814 19.406-24.876 16.294-25.091-46.4 6.0567-53 1.5192-0.33562 3.1937-0.50902 4.9062-0.5zm-945.87 2.4688c9.6328-0.43095 6.3266 15.435-2.6797 14.07-4.532-2.31-5.5114-10.882-0.7324-13.377 1.2815-0.4305 2.4156-0.64878 3.4121-0.69336zm-25.1 0.77149c6.1943 0.30919 7.4753 13.395 1.2051 16.357-6.716 1.126-13.359-12.65-4.1543-15.643 1.0777-0.54413 2.0643-0.75901 2.9492-0.71484zm133.4 0.41601c7.38 2.522 14.706 5.3355 21.531 9.1445-3.271 5.978-5.042 12.704-4.998 19.529-35.916 14.099-28.602 9.475-27.863-5.625 0.123-8.888 4.6551-17.309 11.33-23.049zm693.26 0.39453c10.854-0.23469 10.342 14.669-4.6406 10.416-5.999-1.721-6.6516-7.9742 2.3184-10.158 0.82368-0.16037 1.5987-0.24216 2.3223-0.25781zm-920.94 0.90045c10.945-0.0804 7.4789 22.373-10.49 16.658-6.816-2.03-4.2611-11.789 6.6309-15.855 1.4405-0.54675 2.7271-0.79442 3.8594-0.80274zm758.97 0.45899c1.9636-0.0456 3.9308 0.85247 5.3925 2.168 15.431 13.945-6.0736 25.436-14.639 20.051-6.436-4.622-0.7163-18.748 7.3027-21.84 0.635-0.24475 1.2888-0.3637 1.9434-0.3789zm-152.27 1.5234c14.382-0.0665 33.135 44.759 4.6406 52.828-9.79 2.587-7.5124-22.521-15.316-34.203 0.634-5.723 1.394-12.142 5.67-16.418 1.5388-1.5134 3.2396-2.1989 5.0058-2.207zm-269.41 0.26368c21.882-0.0573 42.365 11.566 48.209 35.775-12.177-9.919-27.493-15.317-42.879-17.645-3.236-6.427-7.3714-12.37-12.15-17.74 2.279-0.2549 4.5567-0.3847 6.8204-0.39062zm-135.22 0.93359c5.8781 0.35738 0.025 18.215-3.3223 28.477-23.852-1.1-10.46-21.006 0.045-27.484 1.3601-0.73638 2.4376-1.0432 3.2773-0.99219zm123.46 0.37305c4.532 4.965 8.6937 10.281 11.93 16.189-3.624-0.273-7.258-0.35262-10.873-0.14062-4.762 0.737-14.26-5.3481-11.426-10.078 2.178-3.615 6.5781-4.8327 10.369-5.9707zm409.42 0.26367c4.0667-0.3172 6.9431 4.6461 3.6328 18.916-8.665 0.784-16.896 0.20619-13.746-8.5078 2.01-5.7361 6.5251-10.128 10.113-10.408zm207.05 0.43359c6.9073-0.11162 13.16 10.888 6.8262 12.777-10.513 3.149-18.151-9.7164-7.4961-12.732 0.2238-0.0274 0.4471-0.0413 0.6699-0.0449zm-483.06 2.998c3.6868-0.10503 6.5807 3.6918 7.0977 14.709-22.393 8.263-27.036-1.375-12.467-12.459 1.8543-1.3488 3.6933-2.2023 5.3691-2.25zm-404.02 1.0059c4.876 3.501 8.7917 8.4992 10.846 14.16 8.957 24.068-50.176 5.8512-13.111-13.508 0.565-0.168 1.7016-0.49334 2.2656-0.65234zm338.13 1.3281c2.6341 0.0284 5.2541 1.2086 7.4629 2.5781 12.852 8.637 1.2679 18.743-7.3281 11.754-7.372-6.332-6.7058-12.507-2.7598-13.939 0.8665-0.28225 1.7469-0.40203 2.625-0.39258zm-140.21 0.53321c9.232 7.75 6.7347 11.079-4.3203 15.879 0.141-5.573 1.6923-10.985 4.3203-15.879zm37.846 2.2344c5.9866-0.0312 11.56 4.5156 7.0078 18.381-22.684 11.863-21.736-8.2311-15.359-15.246 1.9673-1.8463 5.2158-3.1184 8.3516-3.1348zm678.67 1.2109c7.5197-0.15973 9.8383 11.64 4.4062 11.959-6.542-0.266-11.736-9.887-6.9042-11.498 0.8864-0.29841 1.7201-0.44442 2.498-0.46094zm-258.24 2.416c3.3992 0.20553 5.2906 4.3755 1.8125 16.799-8.589 0.335-17.978-1.0498-13.56-8.4648 2.1069-3.7076 7.8956-8.5669 11.748-8.334zm131.62 1.8144c4.0719 0.0693 8.2001 4.2262 7.3047 8.3887-1.967 23.195-19.365-2.0534-10.053-7.7324 0.87132-0.4695 1.8084-0.67223 2.748-0.65625zm249.81 1.2266c14.435 0.51265 14.011 44.598-11.971 55.779-7.497 3.887-21.316 0.0552-19.062-19.592 2.325-18.032 22.123-34.382 28.797-35.938 0.7805-0.19467 1.5264-0.27521 2.2363-0.25zm-228.01 3.8672c3.7312 0.0775 7.3995 3.1256 7.9473 6.875-0.71 6.459-14.678-2.7778-9.541-6.7188 0.52675-0.11675 1.0607-0.16733 1.5938-0.15625zm-48.482 0.44336c4.5956-0.0988 8.5765 0.83892 8.2598 3.6621-1.517 3.695-5.316 5.5822-8.42 7.7422-8.565-2.741-18.693-6.7744-9.9472-9.6894 2.5869-0.93362 6.533-1.638 10.107-1.7148zm-304.28 0.26758c4.1244-0.0795 8.2818 1.0912 11.978 2.8574 18.516 9.327 1.7831 21.722-8.0859 17.891-15.044-5.549-17.897-18.213-7.9863-20.227 1.349-0.3285 2.7189-0.495 4.0937-0.52148zm382.45 2.2617c2.3583 0.0587 4.7758 1.3018 5.9219 3.3203 0.988 3.73-3.7375 7.2925-7.1855 6.2695-2.892-1.587-4.427-6.4734-1.791-8.8984 0.92281-0.50125 1.9827-0.71811 3.0547-0.69141zm-729.75 0.1543c7.6949 0.0817 11.472 5.0866 11.172 13.447-0.498 21.532-47.492-4.0593-17.123-12.697 2.1911-0.52462 4.1754-0.76885 5.9511-0.75zm162.61 2.0293c5.4807 0.0204 11.38 0.78511 14.176 1.1621 1.296 5 1.508 10.291 0 15.273-7.348-2.375-24.273-7.5689-25.834-13.129 1.1165-2.6015 6.1774-3.327 11.658-3.3066zm596.55 0.63672c10.228 0.81716 15.619 25.856-5.5625 17.041-10.877-4.661-5.8742-13.592 2.2578-16.453 1.1375-0.49819 2.2466-0.67243 3.3047-0.58789zm-140.73 0.60351c9.3951 0.59295 15.951 19.039-3.9765 14.463-9.638-2.184-5.5649-11.359 0.9961-14.029 1.0065-0.366 2.0085-0.49494 2.9804-0.4336zm-436.98 0.75196c26.126 5.724 49.718 16.32 46.609 42.869-2.474 10.637-29.468-26.655-47.217-27.043 1.578-5.132 1.5954-10.58 0.6074-15.826zm235.64 0.41992c10.99-0.0485 30.225 22.952 4.4219 36.119-5.902-9.237-14.993-28.149-8.4727-34.59 1.0781-1.0435 2.4807-1.5224 4.0508-1.5293zm103.78 0.0703c7.6409-0.24853 11.008 7.6878 4.5176 10.77-3.112 1.631-6.4548 2.8657-9.3028 4.9727-13.61-0.872-16.235-3.3352-4.0742-12.283 3.29-2.3847 6.3124-3.3761 8.8594-3.459zm-440.49 3.9356c0.336 1.587 0.6533 3.1833 0.9883 4.7793-7.768 10.907-17.001 20.783-23.711 32.422-1.19 3.783-0.9331 8.024-3.1641 11.498-5.78-3.229-8.7484-30.873-2.8574-36.848 9.752-3.421 18.64-9.2416 28.744-11.852zm709.88 1.4609c4.5621 0.17636 9.232 5.6348 5.9218 9.8164-9.237 13.778-17.622-3.6178-7.8457-9.5488 0.6238-0.2095 1.2721-0.29277 1.9239-0.26758zm-497.31 0.1504c3.747-0.13977 7.4456 1.7602 10.412 3.9531 17.831 13.755 3.5931 26.231-10.008 21.797-8.746-3.401-11.8-22.161-2.998-25.307 0.8614-0.27113 1.7291-0.41111 2.5938-0.44336zm295.38 2.7363c4.6922-0.15395 8.8 3.9188 10.445 8.0859 3.049 7.034-9.4544 11.406-16.523 7.0352-5.273-3.172-1.0192-13.076 5.1328-15.033 0.3174-0.0491 0.6325-0.0776 0.9453-0.0879zm-493.29 0.23828c3.555 1.938 1.1615 12.928-0.062 18.771-3.201-4.224-5.7475-8.9062-7.6875-13.826 2.301-1.966 4.469-4.7953 7.75-4.9453zm755.68 1.4277c4.8702-0.10266 9.7838 0.86728 14.082 3.1758 16.709 8.895-6.3656 23.69-19.434 16.98-15.78-7.64-11.328-17.654 0.5215-19.707 1.5895-0.2625 3.2067-0.415 4.8301-0.44922zm-355.04 0.16797c3.6058-0.19413 5.5777 3.1073 1.5567 13.904-4.215 0.177-8.9859 0.85599-12.672-1.666-1.737-1.208-1.5241-3.713-0.2461-5.168 2.516-3.1875 7.7556-6.8762 11.361-7.0703zm-657.16 0.32618c2.0342 0.0171 4.066 0.0813 6.0938 0.17578 39.745 2.118 76.162 23.848 105.14 51.994 17.442 16.956 17.474 27.956 21.18 36.938 18.407 47.019 90.902 76.125 113.35 82.283 47.816 8.981 44.658-6.1612 54.096-38.117 43.145-23.949 54.391 35.12 22.801 39.924-13.881 2.571-11.913 3.1958-18.225-12.158 4.197 45.637-134.3 20.488-181.13-66.49-7.015-12.27-5.9965-29.196-40.436-53.777-27.925-19.615-72.779-37.427-101.07-39.281 5.9918-1.1775 12.102-1.5415 18.205-1.4902zm188.52 0.25781c7.0302-0.16984 11.358 8.3954 11.787 10.508 0.718 5.601-11.105 6.9982-14.08 4.2422-8.016-7.122-6.1616-12.38 0.025-14.4 0.7838-0.22134 1.5403-0.33204 2.2676-0.34961zm130.85 1.752c4.846 0.2268 12.938 3.2012 17.33 5.0449-2.857 5.008-6.8963 9.2043-11.49 12.652-3.589-4.444-7.8126-8.7477-9.5586-14.303-0.9292-2.6779 0.8112-3.5306 3.7188-3.3945zm403.51 2.5156c6.6421-0.33373 10.658 15.124 2.9004 18.047-14.127 5.812-15.652-11.469-5.0352-17.406 0.7333-0.40388 1.4477-0.60611 2.1348-0.64063zm-450.62 0.57031c3.3682 0.34075 4.3213 22.424 4.5488 25.023-4.955-1.164-9.645-3.2442-13.666-6.3652 2.16-5.899 3.6415-12.293 7.5215-17.354 0.5846-0.959 1.1145-1.3534 1.5957-1.3047zm-26.639 1.543c2.46 5.59 5.6521 10.862 9.6641 15.482-4.074 16.409-9.2756 32.503-13.561 48.85-36.645-12.76-16.618-39.734 3.8965-64.332zm53.043 0.74024c4.5636 0.11667 14.358 6.702 23.068 14.654-5.846 3.457-12.229 5.9431-18.824 7.5391-2.681-5.749-5.7489-11.515-6.6309-17.863-0.6806-3.0997 0.3124-4.3831 2.3868-4.3301zm109.91 0.85742c4.1381-0.14525 8.0441 2.4456 10.99 5.1914 12.347 12.276-0.8985 20.184-6.9395 19.812-9.785-2.424-15.07-21.922-5.8359-24.768 0.5985-0.14 1.194-0.21558 1.7851-0.23633zm-300.05 0.19531c5.8807-0.0617 10.554 8.3937 10.316 16.484-0.448 21.577-39.884-1.9266-13.684-15.518 1.1483-0.65203 2.2782-0.95538 3.3672-0.9668zm-122.94 0.0742c1.2602 0.0149 2.5209 0.14284 3.7774 0.43359 32.537 5.885 75.709 26.194 99.027 49.219 13.809 13.401 72.517 146.84 205.1 130.04 7.261-0.878 11.008-2.3419 25.774 4.7441 8.845 4.327 8.6195 14.009 14.02 12.777 13.003-2.415 11.519-11.021 25.121-6.5527 23.864 9.207 35.724 33.401 38.488 52.525-3.862-2.108-7.7497-5.7673-12.432-4.9473-3.738 3.096 2.5447 17.21 6.0117 20.668 5.679 5.114 15.201 2.4609 19.266-3.4551 116.7 24.09 73.546 65 67.604 84.814-26.451 72.384-63.866 113.47-140.94 101.33-79.947-10.607-219-49.631-278.08-87.725-121.16-79.917-58.985-167.44-73.379-240.58-12.703-67.983-59.265-101.07-10.633-111.73 3.7095-0.62775 7.4928-1.5994 11.273-1.5547zm354.96 0.39844c63.615 33.144 41.378 65.877 31.539 65.461-7.182-1.035-12.563-16.42-19.725-28.004-7.324-11.583-6.8763-5.8647-24.195-23.473 4.973-3.818 9.3828-8.4384 12.381-13.984zm219.82 2.041c8.744-0.30601 16.81 10.793 8.7617 23.264-4.505 2.919-9.4697 5.1072-14.178 7.6992-3.927-10.526-7.9538-27.14 2.6972-30.49 0.902-0.28688 1.8142-0.441 2.7188-0.47266zm74.377 1.377c5.6573-0.17019 7.8259 3.4913 6.0157 11.254-0.294 1.928-1.2443 2.1349-11.197 9.5059-31.598-0.931-10.244-16.623 0.7129-20.033 1.671-0.44419 3.1632-0.68729 4.4687-0.72656zm201.8 1.7285c2.211-0.13645 4.4946 0.90939 6.3066 2.1191 13.438 9.431 1.4185 24.004-4.7695 20.535-6.903-3.758-10.089-18.155-3.7031-22.086 0.70075-0.346 1.429-0.52287 2.166-0.56836zm-552.2 1.2031c2.249 5.378 4.6568 10.686 7.0898 15.977-2.372 0.018-4.7268-0.0169-7.0898-0.0879 0.079-5.299 0.053-10.599 0-15.889zm699.04 1.8242c8.0215-0.62484 10.805 21.225-4.6973 24.002-8.298 0.975-7.5763-16.938 2.0547-23.041 0.9275-0.59165 1.8128-0.8963 2.6426-0.96094zm126.93 1.5859c7.4047-0.15143 12.084 3.7129 8.1758 11.209-3.994 8.015-12.186 12.538-17.371 19.627-10.91 12.788-8.5595 18.652-22.44-3.2363 4.1676-18.579 20.812-27.378 31.635-27.6zm-215.06 0.0937c3.1403 0.15423 6.9836 5.6387 9.2773 9.1934-1.155 3.28-2.1949 6.8876-5.1309 9.0566-1.782-1.52-10.572-11.738-6.5703-16.967 0.71947-0.952 1.5445-1.3264 2.4238-1.2832zm-207.43 0.15625c3.4084-0.0465 6.8364 1.3084 9.4161 3.5078 6.426 5.36-2.3256 12.945-8.5606 11.383-6.616-2.846-9.9472-13.146-3.2012-14.627 0.7737-0.16687 1.5592-0.25293 2.3457-0.26367zm-713.81 0.33985c-4.3694-0.17623-9.0471 5.8448-6.7285 11.043 3.43 4.435 14.09 1.8598 12.291-4.6563-1.0687-4.5018-3.2738-6.2944-5.5625-6.3867zm900.52 3.5801c2.6727 0.20129 7.6711 3.6192 10.646 8.2285 14.654 21.587-43.413 20.376-12.072-7.8301 0.31575-0.32119 0.809-0.44489 1.4258-0.39844zm-721.88 0.51954c7.035-0.37975 7.5408 13.614 0.7383 14.781-13.521 2.6-16.532-11.358-2.2324-14.504 0.5268-0.16113 1.0251-0.25203 1.4941-0.27734zm768.39 0.0684c2.9457 0.23179 5.637 3.2044 6.4043 6.002 0.986 15.75-18.499 13.332-17.75 3.3418 2.001-3.448 4.974-6.4477 8.377-8.5547 0.9765-0.63925 1.9869-0.86633 2.9688-0.78906zm-721.31 0.37109c2.1656-0.0555 4.425 0.29615 6.3614 0.55078 11.664 34.991-19.353 20.271-13.367 2.7598 1.5919-2.4947 4.2215-3.2392 7.0058-3.3106zm312.46 0.96094c1.7069-0.041 3.4131 0.4814 4.7187 1.6445 15.725 13.531-4.6793 28.747-16.154 21.391-6.699-4.52-0.7507-18.361 8.4473-22.369 0.939-0.41325 1.9641-0.6414 2.9883-0.66601zm-187.11 0.34961c63.635 65.349 16.365 76.635 5.8731 70.961-9.173-4.97-8.6474-25.414-13.191-39.934-2.731-8.143-0.8497-1.7238-12.848-22.635 7.107-1.772 13.852-4.7076 20.166-8.3926zm473.87 0.39648c3.4761 0.048 6.9484 1.6036 9.7129 3.6406 9.909 7.509-0.7091 16.365-7.2481 15.924-8.127-1.752-13.51-16.492-5.916-19.072 1.133-0.357 2.2925-0.50819 3.4512-0.49219zm-792.12 2.0742c-1.0398-0.0132-2.0675 0.12128-3 0.39453-4.594 2.011-3.7282 9.9546 0.5488 11.85 4.514 0.82 10.36-2.9984 10.016-7.9004-1.2037-2.9362-4.4452-4.3041-7.5644-4.3438zm254.93 0.49023c4.568 3.245 9.8486 5.2905 15.307 6.4805 1.212 22.999 1.7651 47.626 6.9141 61.467-22.904 0.433-34.053-6.636-31.443-29.793 1.632-13.014 5.5637-25.598 9.2227-38.154zm683.95 1.2051c2.6429 0.043 6.0774 1.7541 9.1172 3.5918 4.231 22.628-15.97 10.236-13.287 0.0625 0.5381-2.7121 2.1143-3.6878 4.1699-3.6543zm-280.35 3.0156c2.0109-0.0756 4.0496 0.3967 5.7011 1.3535 1.534 3.024-0.405 6.5416-1.084 9.6016-14.252 1.094-13.057-5.8685-11.348-7.8125 1.6071-2.0436 4.145-3.0454 6.7305-3.1426zm96.07 0.67773c3.689 0.0745 7.4351 1.6555 9.5058 4.7305 3.548 7.488-6.3123 21.099-14.109 18.463-7.355-3.394-6.6269-20.098 0.9961-22.766 1.1527-0.31074 2.3777-0.45256 3.6074-0.42773zm-468.05 2.4219c20.351 44.569 26.81 62.559 9.7969 63.607-20.383-4.868-18.863-47.136-18.852-63.502 3.015 0.07 6.0397 0.0265 9.0547-0.10546zm757.12 1.4043c5.6845-0.30076 9.0457 18.917 1.3281 17.295-6.063-1.363-11.886-11.136-3.1563-16.531 0.6281-0.49359 1.2401-0.73255 1.8282-0.76367zm-42.455 1.4336c10.296 0.0145 13.808 10.948 13.01 18.473-2.247 22.829-35.046-14.702-16.426-18.111 1.213-0.24806 2.3508-0.36283 3.416-0.36132zm-878.48 1.4824c2.1519-0.0409 3.8183 2.4016 3.8183 4.5938 1.654 16.851-18.815 2.2063-5.371-4.1367 0.534-0.3075 1.0561-0.4476 1.5527-0.45703zm602.61 3.0137c11.76 0.35119 3.795 23.924-3.75 17.318-4.958-4.315-6.1791-15.992 1.1289-17.062 0.9653-0.19881 1.8371-0.27927 2.6211-0.25586zm388.26 1.7383c10.656 0.0625 23.8 13.982 5.6895 30.004-34.645 28.374-32.619-22.463-7.7773-29.828 0.6782-0.1225 1.3775-0.17994 2.0878-0.17578zm-1134.7 0.82034c-2.7922-0.0182-5.6487 1.3552-7.3809 4.584-3.443 6.365 13.337 11.388 15.307 4.9375 1.2031-5.5975-3.2721-9.4911-7.9258-9.5215zm654.15 0.26563c0.9792-0.01 1.9509 0.0279 2.8809 0.0762 9.831 1.085 6.6982 6.8257 1.9492 15.221-5.016-2.56-17.031-8.6893-12.943-12.777 2.169-2.0168 5.1757-2.4898 8.1133-2.5195zm-616.11 1.3574c-3.5735 0.0456-6.5005 1.8099-6.7208 6.1094-0.511 7.612 5.8926 17.083 12.352 13.605 16.85-8.7213 3.5014-19.831-5.6308-19.715zm824.55 3.1367c8.1358 0.28998 16.2 21.171-1.8555 20.051-7.145-0.921-6.9805-15.572-0.64453-19.434 0.81432-0.45788 1.6584-0.64719 2.5-0.61719zm-639.31 2.7617c11.273-0.66354 3.7897 23.808-5.0566 18.488-5.781-3.493-9.8741-14.533 2.5469-18.004 0.9234-0.28393 1.7582-0.44014 2.5097-0.48437zm725.61 2.1777c6.9125 0.0165 9.7392 8.6657 8.1269 16.805-5.238 24.265-43.722-8.4284-10.404-16.523 0.80213-0.19322 1.5623-0.28295 2.2774-0.28125zm-473.38 1.084c5.5054-0.28467 11.715 11.82 14.678 17.66-23.92 37.885-26.482-9.3706-16.982-16.727 0.7463-0.60075 1.5182-0.89293 2.3047-0.93359zm-290.09 0.58984c11.283-0.37231 12.381 30.383-9.9004 21.205-7.993-3.165-2.7803-16.673 7.5117-20.693 0.8388-0.32256 1.6365-0.4869 2.3887-0.51172zm628.19 0.16406c6.2905-0.29057 12.428 5.735 4.2539 25.75-19.299 8.502-16.976-12.864-12.23-21.197 1.3447-2.5166 4.6815-4.4005 7.9766-4.5527zm-380.79 6.5703c16.985 0.0937 11.065 32.304-2.0684 23.861-8.478-5.287-12.557-19.183-5.2539-22.307 2.8058-1.092 5.2364-1.5662 7.3223-1.5547zm553.12 3.291c2.5066 0.0278 4.9581 1.8494 6.5586 3.7207 8.487 9.79-3.4049 16.101-10.713 14.178-6.376-1.758-4.2978-13.761 1.6582-17.264 0.8178-0.454 1.6606-0.64403 2.4961-0.63477zm-975.08 0.62695c-5.0925 0.0572-9.7536 6.2564-10.092 11.365-0.62 10.056 26.218 6.671 16.938-6.957-2.1275-3.1909-4.531-4.4342-6.8457-4.4082zm832.23 0.10547c6.7133 0.31074 16.819 7.5864 11.092 18.773-3.643 2.529-9.0468 3.4441-10.51-3.8359-2.495-3.201-5.6431-6.4728-5.8281-10.758-0.1563-3.0228 2.1945-4.3209 5.2461-4.1797zm-135.18 0.46289c2.0962 0.0971 4.1729 1.8839 4.9199 3.7949 0.362 3.968-4.1967 8.1309-8.0937 6.8789-3.033-2.548-1.7019-7.9174 1.1191-10.148 0.6545-0.40125 1.356-0.55775 2.0547-0.52539zm-118.81 0.33399c3.2091-0.086 6.3672 1.5265 8.8965 3.418 17.885 13.688-6.0418 26.103-16.965 20.402-7.78-4.139-2.9383-20.145 5.8457-23.471 0.7389-0.21806 1.4821-0.32978 2.2226-0.34961zm507.96 1.584c21.437 16.136 10.405 20.276 7.918 20.174-7.208-0.184-16.592-9.7987-14.822-16.471 1.093-2.724 4.3643-3.1921 6.9043-3.7031zm-267.89 3.3145c4.3315-0.0259 6.2301 8.85 7.416 16.551-29.013 13.737-16.728-9.4319-11.664-14.213 1.6319-1.6242 3.0353-2.3306 4.2481-2.3379zm-587.01 0.63671c7.0148 0.37025 19.162 13.403 8.7793 25.93-20.71-2.661-17.499-18.374-11.973-24.75 0.7712-0.88359 1.8943-1.2482 3.1933-1.1797zm420.42 0.35157c5.0312-0.0376 10.67 4.3316 13.375 18.596-12.377 25.212-25.708-4.0307-22.836-11.973 1.0566-3.1242 5.0216-6.5898 9.4609-6.623zm77.371 0.01c23.795 0.259 24.371 28.387-4.6992 29.625-5.176-4.391-9.6645-10.835-8.6855-17.951 0.741-6.543 6.8687-11.666 13.385-11.674zm417.29 0.31055c5.2648-0.20304 7.4008 6.4402 6.2012 12.984-2.903 16.916-51.688 4.007-8.6484-12.459 0.8791-0.32875 1.6951-0.49638 2.4472-0.52539zm-467.27 0.29492c2.4025 0.27441 3.4807 4.3067 2.7422 6.5703-0.94 6.699-15.113-0.0138-4.6114-6.0918 0.6895-0.405 1.3147-0.54184 1.8692-0.47852zm-625.1 1.502c-9.6688 0.21085-20.222 10.224-3.7989 18.305 11.569 5.769 15.78-8.4454 12.141-14.814-1.9943-2.5425-5.1189-3.5605-8.3418-3.4902zm468.53 5.7871c10.341 0.33434 23.373 16.86 17.006 23.123-15.062 14.587-32.718-18.295-20.104-22.678 0.9877-0.34125 2.0279-0.4799 3.0977-0.44532zm-132.63 0.92969c2.6299-0.0751 5.1715 1.61 6.998 3.4219 13.16 13.548-1.9467 22.394-12.053 13.807-4.464-4.076-1.8724-14.632 3.2266-16.875 0.6084-0.22482 1.2212-0.33618 1.8281-0.35352zm475.25 1.0723c9.079-0.24784 12.2 5.2016 9.4004 11.422-12.85 28.422-41.122-6.8179-11.295-11.295 0.65825-0.0686 1.2893-0.11043 1.8945-0.12695zm-695.36 6.0508c10.664-0.45826 8.4144 14.556-1.5254 14.631-5.528-1.34-8.2251-11.605-2.2031-13.959 1.3853-0.41222 2.6254-0.62447 3.7285-0.67187zm798.01 1.3652c12.289-0.16504 28.048 7.0512 19.658 10.285-4.552 1.867-23.717 3.0188-29.768-7.2402 2.302-2.1162 6.0131-2.9899 10.109-3.0449zm-339.26 0.88086c11.924-0.18873 11.074 21.989 0.3652 15.037-6.55-4.251-8.7665-12.36-4.4785-14.205 1.5102-0.55528 2.8797-0.8125 4.1133-0.83203zm-608.97 0.77539c-9.1409 0.20705-19.575 9.4702-3.5351 17.137 10.851 5.24 14.57-7.6266 11.217-13.932-1.7313-2.3382-4.6347-3.2741-7.6817-3.2051zm1061 2.3164c2.8719-0.07 5.7787 1.2615 8.1465 2.8027 16.156 11.127-1.8134 20.21-9.4434 14.734-5.078-4.298-6.841-14.695-1.543-16.955 0.928-0.37925 1.8826-0.55869 2.8399-0.58203zm-631.69 2.1016c12.446-0.21931 24.841 8.6872 13.373 22.012-13.072 15.055-38.991-16.427-18.641-21.346 1.7108-0.41763 3.4896-0.63469 5.2676-0.66602zm-186.84 0.71875c2.6949 0.1352 6.1428 1.8177 10.375 6.0137-6.135 6.181-15.988 13.85-17.564 5.2559-1.0244-4.3766 1.2607-11.567 7.1895-11.27zm739 0.77344c1.6477 0.0627 3.3572 0.51469 4.8867 0.86719 42.67 12.989 15.625 45.432-9.4082 0.59961 1.2875-1.2035 2.8737-1.5296 4.5215-1.4668zm44.5 0.4668c10.165-0.0716 15.62 14.883-1.8145 12.576-8.85-1.159-5.8297-9.8282-1.4707-12.035 1.1322-0.36478 2.2336-0.5336 3.2852-0.54101zm-107.4 1.584c4.2775-0.11687 8.5806 0.78605 12.434 2.748-3.631 9.229-23.24 9.5762-33.225 9.5762 0.961-4.312 4.9388-6.8772 8.5098-8.9492 3.752-2.1205 8.0037-3.2581 12.281-3.375zm-574.15 0.20898c4.9309-0.0546 9.1584 4.9746 6.0332 17.246-7.729-0.182-18.089-1.5042-15.686-8.9062 1.5567-5.1804 5.8172-8.2974 9.6524-8.3398zm442.71 3.6543c7.7663 0.0353 14.039 14.506 6.4785 16.547-10.925 2.482-22.958-11.155-8.9219-16.066 0.8217-0.33506 1.64-0.48412 2.4434-0.48047zm-51.402 0.875c7.324 0.28163 15.347 9.6814 15.965 14.365-0.873 6.622-9.5583 11.181-15.404 7.6445-9.156-5.349-9.7548-18.948-3.6328-21.531 0.9941-0.37225 2.0259-0.51875 3.0722-0.47852zm203.21 0.16211c2.3876 0.0111 4.7666 1.5536 6.4863 3.1211 5.86 5.778 3.2854 8.8909-5.1406 17.045-7.379-2.978-8.5109-16.095-3.7129-19.611 0.7735-0.3925 1.5713-0.55838 2.3672-0.55469zm-653.83 1.4902c0.3532-0.01 0.7125 0.0129 1.0762 0.0703 20.776 1.904 18.889 6.4268 11.805 13.26 0.74 0.185 2.2315 0.55643 2.9805 0.73243-9.008 5.274-32.07-3.5508-22.44-10.924 1.8979-1.4814 4.1061-3.072 6.5781-3.1387zm843.61 0.57226c8.857-0.15831 18.832 11.118 2.4629 15.846-11.829 3.384-12.098-11.138-6.1113-15.025 1.1396-0.54175 2.3831-0.79769 3.6484-0.82031zm-653.53 5.9766c3.3323-0.01 6.6367 1.6644 9.2227 3.7148 17.442 13.812-2.8745 20.835-7.3985 14.477-4.268-5.192-11.499-15.394-5.1406-17.572 1.0913-0.4255 2.2057-0.61592 3.3164-0.61914zm-280.54 1.1094c4.5479-0.12369 9.2377 6.0569 9.6562 12.92 1.127 17.963-33.768 0.27903-12.141-12.168 0.8044-0.49109 1.6422-0.72905 2.4844-0.75195zm453.58 1.4102c17.329-0.21866 12.955 19.708 1.9024 27.982-15.311 11.471-29.507-23.366-5.6602-27.66 1.3526-0.20306 2.6026-0.30769 3.7578-0.32227zm247.05 0.70899c-0.723 5.484-5.6074 9.1436-6.8594 14.434-0.591 1.772-0.54611 4.3114-2.6621 5.0254-3.624 1.067-7.6718-0.0708-10.758-2.0898-1.737-3.05 0.6078-6.391 2.5918-8.666 4.576-4.84 10.81-8.8261 17.688-8.7031zm20.494 0.8418c16.811 0.009 16.654 23.245-1.582 19.219-14.497-3.74-16.292-15.111-4.1777-18.42 2.101-0.55209 4.0207-0.79974 5.7598-0.79882zm-335.83 2.1914c11.535-0.61732 24.961 21.133 16.629 28.895-12.129 11.053-48.456-19.044-18.904-28.463 0.7452-0.25075 1.5064-0.39048 2.2754-0.43164zm385.69 0.41992c1.2873 0.0396 2.5994 0.29386 3.8164 0.50586 17.78 4.566 16.675 21.659-1.543 20.404-8.852-0.899-10.69-15.252-5.9434-20.121 1.1195-0.6525 2.3826-0.82869 3.67-0.78907zm-609.35 0.22852c5.0103 0.18805 7.0939 6.2655 3.5801 20.293-26.973 5.594-26.405-4.8768-15.182-14.717 4.5371-3.6825 8.5953-5.689 11.602-5.5762zm-343.84 1.7637c-5.2552 0.20721-10.584 6.0524-9.084 13.248 2.45 7.475 19.379 3.6932 17.555-4.3828-1.3138-6.5102-4.875-9.007-8.4707-8.8652zm43.129 0.80664c-4.0449 0.21509-6.9924 2.7613-5.8867 8.9316 1.177 7.065 6.9541 16.44 17.035 9.709 11.96-8.3057-2.2496-19.114-11.148-18.641zm960.47 2.6719c11.908 0.63531 19.36 21.907 12.316 31.539-7.294 10.352-21.473-27.968-16.145-31.037 1.3161-0.41166 2.5963-0.56767 3.8282-0.50195zm88.641 0.0254c11.934 0.36493 8.3206 21.123-7.1953 16.895-10.9-3.097-8.4817-12.727 2.9883-16.303 1.5714-0.44896 2.9724-0.62954 4.207-0.59179zm-577.83 0.37695c5.1182-0.061 7.1651 4.7312 6.8555 10.389-1.778 24.28-31.41-1.1415-10.898-9.5215 1.517-0.58013 2.8618-0.85312 4.0429-0.86719zm528.83 1.5234c8.4774-0.12109 16.062 8.4236 7.959 11.846-13.536 7.044-17.874-8.5976-11.604-11.225 1.2043-0.41125 2.4334-0.60379 3.6445-0.62109zm-280.4 2.0293c9.216 0.0641 22.61 4.4915 26.254 9.5 2.23 6.041-14.83 9.5471-23.022 7.6621-9.028-4.078-14.161-16.316-6.8867-16.912 1.1054-0.18 2.3377-0.25915 3.6543-0.25zm-534.29 1.8106c1.5905 0.0616 3.1957 0.43671 4.6817 0.90821 15.457 5.252 9.795 29.821-1.711 23.48-9.054-4.842-14.161-19.345-7.5644-23.418 1.428-0.78 3.0032-1.0323 4.5937-0.97071zm517.52 0.0254c1.2437 0.0432 2.3898 0.41155 3.2793 1.4199-0.291 4.109-4.364 6.5073-7.168 9.0293-22.643 16.327-47.075 2.3898-2.4063-9.4082 1.8788-0.28125 4.2221-1.113 6.295-1.041zm-338.78 1.0293c2.0481 0.10433 4.0678 0.96516 5.6328 2.332 17.251 14.602-1.8499 30.016-16.629 21.945-8.273-4.412-2.2728-19.27 7.3692-23.596 1.1572-0.5355 2.3981-0.74424 3.6269-0.68164zm472.45 4.166c4.0621 0.2841 5.2412 9.8964 2.6543 14.928-5.358 2.795-17.222-6.6931-5.2012-14.037 0.94438-0.67547 1.7946-0.94324 2.5469-0.89062zm-514.6 3.1094c12.058 0.3188 25.192 10.069-1.2148 18.379-3.403-1.825-7.1253-3.0859-10.361-5.2109-1.129-3.73-0.7852-8.5005 2.5918-10.979 2.3161-1.6279 5.6081-2.2787 8.9843-2.1894zm490.22 0.52539c0.22928-0.002 0.46278 0.0101 0.69922 0.0332-2.025 23.472-39.1 30.293-9.418 4.6035 2.6203-1.9266 5.2795-4.6135 8.7188-4.6367zm-57.484 0.54297c8.8129-0.17227 29.539 12.665 28.186 21.674-7.951-2.884-24.402 4.179-31.77-16.541-0.9688-3.5718 0.6463-5.0754 3.584-5.1328zm131.61 2.7891c11.524-0.0673 20.532 10.068 0.9297 19.785-11.093 6.11-21.575-17.088-4.5586-19.426 1.2171-0.2371 2.4367-0.35242 3.6289-0.35938zm-924.85 3.6973c-4.7721 0.14716-8.8218 5.9252-8.8555 10.258 1.343 9.995 27.428 10.132 15.502-6.3027-2.1591-2.9253-4.4774-4.022-6.6465-3.9551zm699.95 2.6992c0.7022-0.0138 1.4047 0.0334 2.1055 0.16992 5.112 1.729-2.5387 13.339-7.8477 17.926-7.334 4.738-43.856-6.7309-0.5195-17.088 2.0505-0.3765 4.1551-0.96656 6.2617-1.0078zm366.02 0.27539c7.5454 0.34658 19.305 16.124 7.875 21.982-27.567 14.402-12.979-19.87-10.051-21.566 0.66-0.3225 1.3952-0.45187 2.1757-0.41601zm74.272 0.95117c12.211-0.34973 19.18 17.444 14.195 22.117-11.755 10.36-45.587-10.929-18.146-21.391 1.3679-0.45909 2.688-0.69038 3.9511-0.72656zm-282.01 5.8457c11.731-0.36254 13.9 34.597-7.7461 24.092-7.066-3.697-3.2186-19.044 4.5664-23.189 1.1228-0.58727 2.1855-0.87162 3.1797-0.90235zm-787.62 0.56446c-5.0324-0.2071-8.4714 5.8266-8.5899 10.496-0.108 6.118 10.505 10.801 16.428 8.4805 5.814-2.259 3.1582-11.413-2.3378-16.408-1.9673-1.7375-3.8226-2.4993-5.5-2.5684zm902.42 1.0058c12.106-0.0634 17.221 17.437 0.6641 18.811-8.251 0.447-10.366-16.124-3.1739-18.553 0.8649-0.17032 1.7027-0.25359 2.5098-0.25782zm44.48 0.35743c10.507-0.50006 16.166 30.937 4.6621 31.369-6.548-2.002-13.043-27.271-6.8262-30.824 0.7399-0.33588 1.4636-0.51159 2.1641-0.54492zm82.104 0.97265c3.149 0.20956 5.8378 3.5957 6.834 6.4395 2.69 6.516-9.5571 10.573-11.664 4.207-1.067-3.448-0.4852-7.9903 2.5918-10.238 0.7605-0.33563 1.5116-0.45657 2.2383-0.40821zm-612.79 3.1309c7.0133 0.10692 13.882 8.2837 8.1758 19.152-2.099 4.1-1.2182 9.5592-4.8242 12.91-5.021 4.039-12.745-8.4942-15.059-14.699-0.027-6.613 2.256-15.253 9.539-17.131 0.7149-0.16762 1.4425-0.24348 2.168-0.23242zm180.16 0.0742c-0.018 6.674-1.5701 13.94-6.6661 18.613-6.212 2.892-26.661 5.1764-17.572-3.4316 7.221-6.234 15.394-11.532 24.238-15.182zm161.84 4.5625c0.56077 0.0259 1.0884 0.28266 1.5156 0.89453 11.242 11.724 11.27 17.506 9.6895 24.469-11.638 3.403-29.983-7.8284-14.689-23.525 0.85457-0.83669 2.2507-1.895 3.4844-1.8379zm-516.41 1.6387c2.5099 0.003 4.882 1.9578 5.7227 4.4043 10.749 24.57-31.201 7.0779-8.2266-3.7031 0.8155-0.487 1.6673-0.70217 2.5039-0.70117zm256.66 0.6836c2.4064 0.0928 4.7321 1.2974 6.4316 3.0156 15.957 15.878-4.8716 27.806-18.35 16.619-6.971-5.648 0.5409-16.747 9.5059-19.336 0.8002-0.238 1.61-0.32975 2.4121-0.29882zm-213.72 0.89062c42.923 37.318-19.42 33.25-13.975 8.6055 1.737-5.996 8.4906-7.8735 13.975-8.6055zm104.06 1.0039c10.556 0.33117 3.1093 34.239-11.379 25.439-5.755-5.139-0.5153-20.108 7.5117-24.381 1.4894-0.76884 2.7752-1.0928 3.8672-1.0586zm287.68 0.88086c7.4045-0.11343 15.615 3.971 13.326 7.541-5.746 11.796-9.8944 10.941-14.318 8.1738-6.955-4.75-10.843-13.278-2.0996-15.395 0.9919-0.20125 2.034-0.30411 3.0918-0.32031zm-333.16 0.0937c1.9372 0.0718 3.8928 0.86343 5.5078 1.8828 18.509 11.686 0.2848 27.111-8.3242 23.375-7.4-4.089-7.7132-20.267-0.5722-24.502 1.071-0.582 2.2263-0.79892 3.3886-0.75586zm-406.08 1.6973c-4.322-0.201-9.3469 4.5894-10.467 10.221-1.684 11.367 26.056 14.763 15.492-6.4629-1.2406-2.5438-3.0608-3.6664-5.0253-3.7578zm699.25 3.0488c7.5681 0.15176 11.494 7.8716 11.803 12.516 1.413 15.068-41.465-2.8839-16.383-11.754 1.6514-0.55859 3.1786-0.78982 4.5801-0.76172zm199.48 0.79102c2.7255-0.0199 5.438 0.72547 7.543 2.5273 6.691 5.571-6.8469 21.461-15.545 18.164-6.008-2.255-10.724-15.078 3.209-19.893 1.5176-0.4995 3.1577-0.78685 4.7929-0.79882zm88.627 2.9707c5.7429-0.10453 13.077 2.2001 11.197 7.7227-6.897 20.224-29.033-3.1974-14.787-7.2754 1.0228-0.27057 2.2645-0.42315 3.5898-0.44727zm134.13 0.0879c2.6625-0.028 5.1851 1.8202 6.9336 3.7539 8.904 10.067-3.8422 18.893-11.781 18.48-8.708-0.68701-6.2288-17.855 2.9902-21.893 0.6216-0.22819 1.243-0.33533 1.8574-0.3418zm34.32 1.4316c6.2592-0.33715 13.545 9.8841 3.0058 13.186-11.243 3.545-10.762-8.6227-4.8945-12.723 0.6047-0.28022 1.2412-0.42801 1.8887-0.46289zm-533.38 1.1055c0.776 1.314 1.6498 2.7159 1.3848 4.3379-2.744 31.622-35.606 18.916-27.881 11.059 7.018-7.627 16.735-12.319 26.496-15.396zm150.07 1.4434c5.1061-0.12404 13.375 4.7304 15.402 5.6641 4.578 33.218-20.949 7.0488-19.381-2.6992 0.4666-2.106 1.9805-2.9163 3.9786-2.9648zm301.73 1.5371c1.8205-0.11913 3.6656 0.34476 5.17 1.4629 16.999 12.178-2.7889 26.932-15.924 19.479-6.978-3.931-1.81-15.847 7.584-20.111 0.9953-0.47625 2.0777-0.7586 3.1699-0.83008zm-977.74 0.33008c-0.7401 0.00007-1.5354 0.18576-2.373 0.60351-12.186 4.923-3.0442 15.368 5.5898 11.596 4.452-3.0555 1.9641-12.2-3.2168-12.199zm-131.14 2.6328c-4.8053-0.0297-9.4544 2.3787-8.5957 6.2871 4.134 17.75 23.567 0.61056 14.742-4.6484-1.7456-1.1084-3.9622-1.6252-6.1465-1.6387zm703.82 1.8047c5.9217 0.034 8.1994 6.5306 2.4121 15.398-3.791 6.108-16.31 4.9018-18.154-0.32617-1.71-5.994 6.1205-12.428 12.106-14.4 1.3185-0.46281 2.5401-0.67817 3.6367-0.67187zm356.66 0.87304c7.2784 0.44905 11.669 19.434 4.7461 27.936-9.79 11.276-15.17-22.804-7.0899-27.447 0.8054-0.3824 1.5908-0.53473 2.3438-0.48828zm-189.62 2.8691c4.745 2.52 8.6957 15.62 12.178 26.893-6.358-3.095-12.84-5.9346-19.285-8.8086 2.028-6.155 4.1624-12.309 7.1074-18.084zm-104.64 9.0039c1.7563-0.0791 3.0989 1.98 4.0019 3.3301 8.059 14.573-24.103 3.9328-4.7793-3.1562 0.2678-0.10688 0.5265-0.16253 0.7774-0.17383zm-342.12 0.22656c11.358 0.46431 18.886 22.14-10.471 16.498-7.989-1.28-3.7746-11.565 6.8594-15.906 1.2204-0.45966 2.4363-0.63983 3.6113-0.5918zm-264.53 1.1777c-5.0567 0.0664-9.9588 1.4613-10.193 4.4746 1.11 21.754 32.238 5.4005 20.146-2.3535-1.995-1.4206-6.0202-2.1728-9.9531-2.1211zm508.71 1.4512c10.375-0.18509 11.428 16.001 6.2031 19.158-14.582 8.874-35.08-10.817-9.7265-18.543 1.2761-0.40209 2.4502-0.59608 3.5234-0.61523zm-630.82 0.10156c-4.3566 0.13495-8.4234 2.2888-8.5059 6.4394-0.283 7.384 6.7478 16.101 12.344 13.412 5.622-2.818 8.6986-14.17 3.5176-17.908-2.0232-1.3778-4.7416-2.0243-7.3555-1.9434zm983.17 0.66406c2.3855 0.0683 4.7838 1.3484 6.5898 2.8574 17.142 14.649-2.5772 25.632-11.031 20.729-6.34-4.456-5.3581-18.961 1.2519-22.836 1.0222-0.56187 2.1052-0.78102 3.1895-0.75zm-108.79 0.95899c5.4669 0.0991 10.84 4.3547 11.127 10.072 0.564 6.348-5.2275 14.425-12.229 12.291-14.364-0.333-11.408-18.096-2.6367-21.734 1.2101-0.453 2.4767-0.65177 3.7383-0.6289zm-293.3 2.0039c-0.791 32.184-41.075 35.449-41.9 24.883 1.45-6.521 17.865-15.28 23.816-18.322 5.766-2.787 11.674-5.6346 18.084-6.5606zm-502.03 1.3477c-3.8959-0.0969-8.188 2.0448-10.252 5.7148-5.14 8.63 18.821 10.963 18.127 2.002-0.4805-5.2845-3.9792-7.6199-7.875-7.7168zm371.31 0.24219c12.577 0.7129 11.935 21.54 4.0469 27.004-7.305 5.046-21.978 6.0554-26.604-1.0566-4.728-7.488 4.3288-20.365 16.34-24.918 2.3538-0.82263 4.4201-1.1312 6.2168-1.0293zm-276.29 1.0684c-5.9115 0.093-11.576 3.2674-12.736 11.582-1.083 7.443 7.8855 12.711 19.644 7.2754 16.56-7.978 4.3775-19.035-6.9082-18.857zm894.25 1.959c10.731-0.37808 15.128 10.605 5.8223 18.334-26.684 20.147-41.515-8.7159-9.3477-17.836 1.2376-0.2985 2.4153-0.45894 3.5254-0.49805zm-133.98 0.0625c4.0123 0.17562 8.0041 2.8754 9.6446 6.5 2.45 5.581-8.6912 10.087-14.037 6.2422-2.09-3.738-2.8293-10.155 1.6407-12.439 0.8994-0.24788 1.826-0.34327 2.7519-0.30274zm-447.75 1.0215c16.224-0.015 12.211 23.978 1.2128 19.799-10.377-3.477-15.477-16.952-6.9121-18.967 2.1262-0.57319 4.0209-0.83048 5.6993-0.83203zm658.51 3.1894c17.402-0.46038 15.509 16.466 8.5059 22.262-9.976 8.091-34.855-17.736-12.246-21.93 1.3359-0.19369 2.5801-0.30134 3.7402-0.33203zm-348.94 3.5312c5.3512-0.15522 10.789 2.3353 14.26 6.3848 6.641 7.144-5.7218 15.729-14.717 12.855-6.538-5.859-10.028-17.748-1.8242-19.01 0.755-0.13338 1.5168-0.2083 2.2812-0.23047zm-515.04 1.5527c-4.8328-0.11463-9.6448 1.7221-10.525 4.709-2.781 13.467 36.861 12.1 18.402-2.2227-2.07-1.647-4.9773-2.4175-7.8769-2.4863zm823.62 0.89258c1.7355 0.0684 3.4604 0.75766 4.8379 1.832 14.194 10.921 4.307 26.976-12.291 17.574-8.591-4.744-3.1424-15.321 4.3906-18.809 0.9754-0.45638 2.0212-0.63871 3.0625-0.59766zm-264.08 0.23828c6.675 2.063 9.2045 10.844 7.1855 16.963-16.463 21.413-14.172 23.232-18.824 22.943 13.596-26.683 1.8137-22.298 11.639-39.906zm72.955 0.9336c4.964 2.125 10.607 4.7252 12.785 10.033 2.876 8.735-19.384 24.631-12.785-10.033zm107.27 0.95312c12.131 8.631 15.361 21.412 11.385 35.453-6.339-7.136-14.673-10.386-13.693-20.527 0.379-5.017 0.4745-10.174 2.3085-14.926zm-329.49 0.5332c2.8775 0.0481 5.746 0.57774 8.3691 1.7402 17.445 11.778-7.7243 26.687-16.197 22.264-12.245-6.233-12.324-21.171 2.6895-23.604 1.683-0.28425 3.4121-0.42928 5.1387-0.4004zm478.88 4.1192c10.775-0.2159 23.445 24.685 14.633 33.816-4.645 4.335-14.828-2.6009-17.652-8.0059-2.141-7.22-6.4263-21.35-0.2383-24.891 1.0482-0.60516 2.1432-0.89759 3.2578-0.91992zm-572.62 0.97461c2.9896 0.0954 5.9303 2.2232 7.9336 4.3262 7.808 8.164-3.076 14.141-11.127 11.109-3.365-1.078-4.9453-11.821 0.2207-14.777 0.9743-0.496 1.9761-0.69002 2.9727-0.6582zm-490.57 4.1152c-3.0304-0.0676-5.3168 2.3064-5.2969 8.7285 0.221 12.72 9.0265 17.816 17.062 12.865 8.5869-5.2958-4.0212-21.421-11.766-21.594zm832.88 1.9336c6.5764 0.22947 9.3618 16.18 1.8692 15.621-7.134-0.368-14.194-8.9141-4.9004-14.662 1.0752-0.70288 2.0918-0.99177 3.0312-0.95899zm-412.55 2.4453c10.731-0.48737 10.489 18.373 4.1953 23.572-19.29 15.477-42.942-11.597-6.4902-23.207 0.8144-0.21425 1.5795-0.33274 2.2949-0.36523zm-122.96 1.375c4.052-0.0183 8.1283 1.1336 11.529 3.3281 13.03 8.592-10.629 22.968-21.012 14.812-4.792-3.575-6.4339-14.016 4.0391-17.379 1.7662-0.50437 3.6015-0.7534 5.4433-0.76171zm-416.99 0.29296c-7.6201-0.28976-15.046 6.0308-8.5 17.645 10.964 12.438 23.302 1.1557 19.451-9.6973-1.737-5.2185-6.3791-7.7734-10.951-7.9473zm244.45 0.68164c-4.7044-0.0425-9.623 2.2971-10.154 6.4277-1.138 8.556 7.835 21.204 15.457 18.463 6.611-2.741 6.7795-16.134 1.9395-22.113-1.6748-1.8679-4.4196-2.7518-7.2422-2.7774zm774.08 1.6699c8.755 0.31519 5.6071 19.467-2.4902 17.621-7.855-1.789-13.472-12.621-0.6172-17.07 1.1681-0.41466 2.2018-0.58339 3.1074-0.55078zm-260.27 3.7949c7.0156-0.30848 15.7 8.1559 14.426 19.486-7.401 2.73-20.723 14.534-23.578 7.7344-1.373-3.189-0.8937-19.616 3.9063-24.77 1.4472-1.5918 3.2817-2.3648 5.2461-2.4512zm-26.977 0.73047c3.5194 0.18503 6.8519 3.595 6.873 7.127-0.969 3.615-5.361 4.6561-8.623 4.7441-9.091 0.343-8.3527-8.1623-0.6777-11.445 0.7935-0.33881 1.6155-0.46848 2.4277-0.42578zm250.02 1.916c8.133 10.782 21.69 13.704 14.508 32.91-5.9359-5.863-8.7271-0.62439-9.7421 7.7246-2.042 30.913 14.069 26.159 16.383 13.754 3.063 13.357 9.1459 11.269 5.3789 29.291-10.023 4.466-22.108-3.8769-25.139 5.4941-1.887 5.687 2.2487 11.92 7.8477 13.41-1.788 9.423 1.7863 33.197 13.693 27.395-1.884-51.489 18.992-15.679 15.703-0.72266-0.9749 5.26-13.94 6.7337-1.2695 19.848 15.114 14.458 22.723 8.0441 25.402 6.7891 19.67-10.52-2.5412-9.5338-2.9082-21.885 11.951-16.646 17.638-13.333 19.715-6.8848 6.605 18.646-10.219 24.648-8.1914 51.096 1.691 20.268 20.336 22.821 25.06 12.273 3.209-7.001 0.2373-14.823-3.0957-21.18 18.795-9.553 7.0949 41.12 10.59 47.279 23.872 47.88 13.592 37.732 18.455 86.852 4.753 55.789 37.814 30.505 30.051 84.436-3.816 25.096-22.022 15.207-31.611 46.766-8.972 29.079 3.773 67.442 18.332 63.398 23.435 25.219 3.9437 56.321 5.0157 84.795-37.766 6.184-10.626 20.898 4.6484 22.662 24.776 24.235 20.35 64.644 12.176 74.541-15.28-5.387-14.649 11.024-12.766 27.969-34.853 9.302-50.376 21.838-17.045 36.371-7.206 10.562-27.363 15.464 0.3614 24.443-33.06 54.617-10.563 59.229-13.102 86.18-17.698-27.805-16.258-9.5158-19.283 1.1992-4.801 5.455-17.421 16.764-18.746 26.478-0.977 7.483 21.279 5.304-1.2617 24.168-20.293-14.898-57.445 57.34-65.389 90.352 1.155-0.97 2.3358-1.9137 3.5528-2.8047-2.525 8.378-16.136 28.357-21.98 37.545-5.209 7.898 0.1714 9.1231-10.766 19.996-122.61 115.52-250.02-52.147-204.69-134.03 51.443-100.67 207.05-94.708 196.91 29.863-7.992 90.349-81.986 112.17-123.65 88.254-42.259-23.733-56.298-87.894-9.25-130.01 10.081-10.268 44.104-23.514 66.695-12.961 43.975 19.967 32.104 109.87-38.787 89.057-40.701-16.532-20.751-48.528 5.2109-48.945 18.42-0.385-1.7736 22.872-2.8926 28.039-0.89 3.703 2.5926 6.1704 4.2676 9.0274 15.643-7.571 32.076-33.437 19.012-46.316-13.484-13.803-48.392-8.9246-61.396 15.773-9.07 18.173 2.5605 42.867 15.73 53.76 38.678 32.836 119.25-8.2893 97.863-85.281-17.539-59.682-97.333-36.473-134.42-4.4531-66.915 57.911-0.08 183.13 93.367 156.87 27.056-6.561 110.16-63.826 155.5-211.41 46.752-153.75 53.935-416.84 42.641-468.3-34.285-157.3-104.38-104.06-110.43-204.39 0 0 1.6421-18.224 0.035-80.299-1.057-36.617-3.4389-80.073 3.7031-96.178zm-784.57 0.61914c-4.513 0.16126-9.2282 2.6297-9.1485 6.5059 0.216 7.148 10.269 15.38 16.039 11.955 4.633-3.226 3.228-13.708-1.332-17.166-1.4975-0.96407-3.5073-1.3682-5.5586-1.2949zm662.32 1.7344c6.831-0.15941 12.271 3.5696 10.855 8.2715-6.099 21.158-30.803-2.9949-15.738-7.5039 1.6575-0.48675 3.3064-0.73079 4.8828-0.76758zm-813.09 0.10351c-4.343-0.2317-9.4743 3.6456-11.248 6.4746-3.384 5.888 6.7177 14.069 13.764 12.635 6.032-1.338 5.8501-12.238 1.4121-17.316-1.1187-1.1812-2.4801-1.7157-3.9277-1.793zm552.48 0.10938c7.3552-0.008 10.766 5.718 2.4707 19.988-28.738-1.113-21.494-13.642-10.854-18.174 3.0405-1.173 5.9311-1.8118 8.3828-1.8144zm209.36 0.0352c14.92 0.17625 2.7296 24.1-8.3711 19.266-5.253-3.27-6.0711-16.47 2.8399-18.5 2.1548-0.54816 3.9878-0.78386 5.5312-0.76562zm114.6 0.12304c19.446 2.442 26.825 6.5768 7.9707 21.84-7.22 5.243-10.33 1.9024-10.996-6.8516-0.097-5.096 0.2134-10.562 3.0254-14.988zm150.87 1.752c6.4118 0.28913 9.0804 12.297 3.2695 15.238-10.309 3.325-20.373-9.033-6.2324-14.584 1.0549-0.49762 2.0469-0.6956 2.9629-0.65429zm-740.12 2.123c-4.1199 0.0471-7.6885 2.6459-8.8301 9.4043-3.093 21.494 16.815 20.122 24.053 10.184 5.5722-7.4484-6.1588-19.691-15.223-19.588zm151.35 1.6445c7.8677-0.12503 18.369 4.3646 16.17 16.912-6.865 35.378-40.265-12.847-19.336-16.586 0.9717-0.19613 2.042-0.30831 3.166-0.32618zm204.69 5.2539c-26.778 21.215-52.012 44.291-77.062 67.498-100.79 95.368-71.783 89.232-100.36 78.686-42.547-14.908-61.345-18.783-76.533-18.896 15.566-38.803 15.366-40.617 18.014-38.998 6.398 3.104 16.01 17.21 22.643 1.9746 4.002-10.228 0.5125-7.8722-9.9805-17.283-2.288-22.199 11.548-39.064 31.856-26.037-23.787 7.072-10.643 26.184 8.4043 20.342 6.846-2.022 5.37-13.533-4.877-18.666 21.694 4.946 45.5-0.80633 18.553-32.236 27.48-13.301 33.046 62.796 59.199 19.865 20.877 21.868 19.93-7.7745 39.81 6.2695 12.486-8.632 24.838-17.475 36.988-26.574 8.615-9.364 21.083-13.844 33.346-15.943zm31.826 0.56445c9.4278-0.051 16.084 23.254-2.7871 18.525-6.681-1.964-5.1239-15.498 0.8711-18.189 0.6464-0.22625 1.2874-0.33254 1.916-0.33594zm169.21 0.11719c18.078-0.38387 15.235 17.534 6.9219 21.283-12.761 5.66-22.489-5.7638-24.424-9.2148-4.694-7.627 6.8136-10.541 15.686-11.973 0.62722-0.0516 1.2332-0.0833 1.8164-0.0957zm214.9 0.54492c11.873 0.15984 15.254 26.799 4.0468 37.801-6.006 6.022-20.388 0.33875-21.98-8.1562-1.891-10.115 4.9324-24.987 13.982-28.797 1.4032-0.59681 2.7229-0.86419 3.9512-0.84766zm-62.482 1.8574c8.0097-0.37943 9.9044 27.081-0.8437 22.248-9.544-3.978-9.4741-15.342-2.3731-20.738 1.156-0.99772 2.2332-1.4632 3.2168-1.5098zm-467.49 1.3398c6.6944 0.25861 2.6969 8.5777-7.082 20.107-24.063-2.663-15.258-12.411-1.1641-18.322 3.6586-1.2978 6.3717-1.8576 8.2461-1.7852zm557.78 0.46289c4.5324 0.19678 9.5569 2.9759 12.619 9.7344-3.889 3.959-7.6264 8.7534-13.146 10.402-6.007 1.505-11.133-12.348-7.9961-16.566 1.7714-2.3144 4.9982-3.7234 8.5234-3.5703zm-293.68 0.2793c-0.529 15.968 4.3033 31.435 9.6113 46.301 39.141 107.29 70.969 128.66-56.396 125.98-94.513-2.653-121.01-23.512-126.66-25.801-13.394-5.441 49.07-38.804 67.275-50.135 8.985 4.728 31.359 5.6524 17.74-21.682 18.355-19.124 54.173-54.374 76.914-68.334 3.73-2.301 7.2286-5.123 11.516-6.332zm-679.88 0.20117c-5.1294 0.20765-9.7389 2.4257-10.363 6.793-1.074 8.226 6.2855 19.787 15.688 14.389 7.304-4.078 12.419-13.389 5.9609-18.084-2.9907-2.2059-7.2956-3.2592-11.285-3.0976zm793.74 0.3164c3.457 0.157 6.3825 5.249 6.5 20.02-10.694 0.967-20.976 0.57836-16.189-10.432 2.2435-4.9675 6.2324-9.7449 9.6894-9.5879zm-668.98 1.3027c-6.5991 0.0544-12.985 3.0801-13.443 8.6738-0.703 9.411 9.9541 21.996 18.207 18.666 8.073-3.542 13.015-18.696 6.1094-24.143-2.8782-2.1934-6.9136-3.2299-10.873-3.1973zm896.38 2.2949c2.8227 0.22047 6.1043 3.6604 6.4043 14.932-11.676 2.583-12.43-8.8797-10.246-12.846 0.6192-1.191 2.1482-2.2182 3.8418-2.0859zm-802.62 2.8809c-9.7384-0.0615-11.758 13.369-6.2715 18.479 18.813 18.688 40.142-0.74871 14.248-16.012-3.0721-1.7192-5.7292-2.4526-7.9765-2.4668zm-141.85 4.7891c-7.0284-0.22237-14.415 3.4458-13.65 9.2793 1.183 7.783 13.167 15.364 19.971 11.834 5.692-3.624 6.5714-16.29 0.2734-19.529-1.9482-1.003-4.2509-1.5099-6.5937-1.584zm629.43 3.4824c1.9458 0.10102 3.9062 0.95055 5.5156 1.998 15.861 10.721 6.6059 24.986-6.4551 19.592-6.344-3.351-8.4258-17.182-2.4688-20.844 1.0778-0.5985 2.2408-0.80671 3.4082-0.7461zm-86.846 0.17579c19.758 0.11736 6.1188 24.398-8.625 18.373-13.104-4.961-11.175-14.603 1.3848-17.572 2.7944-0.56532 5.1963-0.81293 7.2402-0.80078zm-716.45 5.7129c-4.6532-0.0512-8.9611 2.0998-9.0742 6.0566-0.196 6.78 8.3658 15.538 13.924 11.912 4.898-3.395 6.8814-12.53 3.0664-15.414-2.208-1.7006-5.124-2.524-7.916-2.5547zm850.14 1.9355c6.1719 0.3686 10.72 14.534 4.5039 20.361-11.38 5.95-17.6-12.526-7.2226-19.609 0.9213-0.575 1.837-0.80461 2.7187-0.75196zm-225.36 0.19141c1.727 0.10412 3.438 0.93523 4.6992 2.1309 13.864 13.066-3.7443 23.594-11.904 19.768-6.51-3.424-3.1041-17.24 4.1719-21.223 0.9555-0.53887 1.997-0.73825 3.0332-0.67578zm360.13 1.6719c7.276-0.2055 9.7094 22.276-0.1661 25.896-6.062 2.431-14.059-15.687-2.2382-25.059 0.848-0.55284 1.6516-0.81663 2.4043-0.83789zm-228.06 0.0117c-4.8557 0.0884-9.5012 2.0813-10.99 6.7598-3.161 9.115 1.6717 18.454 14.68 12.01 18.688-9.9385 6.9931-18.964-3.6895-18.77zm321.55 0.22266c3.767 0.0477 7.5701 1.2656 11.184 2.1992 18.202 6.134 13.138 8.6866-4.9804 18.473-13.368 5.81-25.832-15.354-11.295-19.875 1.6754-0.59781 3.3796-0.81854 5.0918-0.79687zm-204.97 2.1406c4.6315 0.16159 9.2037 4.219 7.2676 13.92-2.009 9.749-8.8953 7.7536-12.361 7.8906-3.059-4.629-3.9312-10.571-2.7852-15.941 0.6401-3.7642 4.2767-5.9948 7.8789-5.8691zm-618.42 0.83008c-3.8404 0.0574-7.9105 3.3013-8.4922 11.447-0.937 8.746 11.688 6.2236 15.254-1.8594 1.6479-5.6243-2.4093-9.6529-6.7617-9.5879zm423.04 0.8418c11.949 0.12154 11.572 19.401 1.0254 30.199-14.973 15.123-37.983-19.83-5.1328-29.59 1.5023-0.42806 2.8714-0.62194 4.1074-0.60937zm444.17 2.2109c10.181 0.31015 17.588 19.295 11.277 24.004-13.919 10.693-46.228-13.987-14.514-23.463 1.1005-0.40406 2.1831-0.5731 3.2363-0.54101zm-227.16 4.7402c4.8057 0.29706 5.274 8.6431 4.3164 16.098-24.868 6.316-13.807-12.583-7.4512-15.377 1.2059-0.55375 2.2448-0.77571 3.1348-0.7207zm-773.96 3.2441c-3.8292 0.14342-6.9406 2.5183-7.7461 8.4082-2.741 20.619 17.557 20.372 24.682 12.857 7.3276-7.4168-7.1498-21.632-16.936-21.266zm-86.273 1.1856c-4.37 0.12673-7.5944 2.4303-5.8985 6.2188 1.728 4.038 5.8205 6.7198 9.9825 7.7598 5.202 1.649 10.527-6.041 6.4179-10-3.0113-2.8586-7.1031-4.0771-10.502-3.9785zm1009.8 2.1914c17.378 0.25348 28.219 20.783 18.529 28.629-4.907 3.97-10.965 4.2285-32.041 2.0625-9.293-0.922-9.7494-8.3885-10.943-17.688 8.6141-9.6024 17.118-13.111 24.455-13.004zm-686.93 0.32618c-9.3928-0.0155-17.41 14.171-4.4082 21.828 4.73-1.501 15.427-6.3156 16.225-11.057-2.9938-7.8241-7.547-10.764-11.816-10.771zm138.65 5.9766c-4.979 0.82-25.713-2.2362-23.029 6.6738 3.697 11.305 27.518 11.829 28.938 5.1406 0.978-4.532-1.2262-10.333-5.9082-11.814zm-517.54 2.6387c-6.4411-0.003-8.2541 7.6028-6.3536 11.018 11.057 20.803 37.315 8.193 14.371-8.041-3.209-2.129-5.8705-2.9755-8.0175-2.9766zm831.31 0.82422c1.7646 0.0465 3.5715 0.79156 5.0371 1.6953 15.005 9.556 0.3322 26.183-6.2168 21.205-6.137-4.392-7.7862-17.947-1.8692-22.113 0.94575-0.59175 1.9901-0.81502 3.0488-0.78711zm-86.287 2.4062c-5.3655-0.40475-6.9167 5.6292 3.7773 21.887 7.962 1.054 19.468 2.0854 15.334-5.1406-4.565-9.4975-13.746-16.341-19.111-16.746zm138.45 0.49023c5.7798-0.22043 11.41 4.1385 13.633 9.3613 3.858 8.392-8.8541 15.645-15.66 14.055-7.408-2.465-7.8802-20.127-0.4492-23.031 0.8222-0.22925 1.6508-0.35328 2.4765-0.38477zm-552.69 0.41016c-4.4798 0.16342-8.6356 3.6976-10.562 12.902-2.813 13.698 9.8693 16.438 19.406 13.445 16.162-5.1757 2.6046-26.765-8.8438-26.348zm459.4 1.4394c-5.4364-0.15476-11.51 2.6224-11.279 7.1055 2.638 13.498 21.914 9.9185 18.879-3.3945-1.3054-2.4701-4.3378-3.6181-7.5996-3.7109zm-543.67 0.45313c-5.4441 0.14479-9.0808 8.6562-6.3183 13.398 3.589 4.056 9.567 4.275 14.584 4.875 2.709 0.636 3.9378-9.5062-3.3692-16.16-1.7069-1.5378-3.3721-2.1538-4.8965-2.1133zm301.01 0.11328c-3.5508-0.15501-8.8245 4.4643-15.594 18.514-1.067 0.15-2.0715 0.36222-3.1035 0.57422 5.414 1.754 11.207 2.512 16.885 1.957 9.1301-0.39036 9.0831-20.728 1.8125-21.045zm458.13 0.0449c0.4297-0.0129 0.8629 0.003 1.2949 0.0488 2.169 0.952 2.874 3.4824 3.377 5.6074 3.949 21.34-12.417 19.715-15.828 12.469-2.125-6.454 1.041-14.593 7.416-17.318 1.1842-0.47625 2.4512-0.76787 3.7402-0.80664zm96.01 0.16992c2.035-0.0214 4.0686 0.70141 5.5898 2.1289 17.512 15.836-4.2561 32.916-17.246 25.287-7.805-4.972-1.9765-21.618 8.1035-26.566 1.1112-0.55537 2.3317-0.83678 3.5528-0.84961zm-504.52 7.5176c4.1711-0.11417 5.4636 7.0953 6.1738 14.203-27.726 14.797-18.074-6.2537-10.404-12.221 1.6699-1.3431 3.0626-1.9504 4.2305-1.9824zm541.45 0.30078c8.3036 0.70828 12.45 27.697 2.3007 26.025-6.28-1.499-12.004-11.844-12.328-17.627 1.71-3.112 4.1361-6.0398 7.3281-7.7148 0.9368-0.55003 1.8403-0.75687 2.6993-0.6836zm-1032.5 3.168c-11.554 0.2086-24.457 11.968 5.8789 13.492 3.477 0.677 10.782-5.1934 1.3574-11.523-1.9747-1.4499-4.5699-2.0169-7.2363-1.9688zm370.56 0.63281c-4.3526 0.18612-7.6345 1.7495-7.8926 5.4004 1.023 4.823 4.2315 8.7921 6.4355 13.121 46.194-2.2672 17.002-19.186 1.4571-18.521zm689.21 0.53711c6.5973-0.24199 14.675 6.9732 11.953 21.449-4.904 22.243-27.761-11.901-14.654-20.889 0.8462-0.3395 1.7587-0.52598 2.7012-0.56055zm-310.38 1.668c3.5602 0.00005 7.1748 2.1824 9.377 4.8809 5.079 5.978-4.6135 16.879-11.355 15.236-6.431-2.275-7.1068-15.587-1.5098-19.328 1.12-0.54675 2.3016-0.78907 3.4883-0.78906zm60.937 0.84961c4.1395 0.061 7.9462 3.7707 8.9707 7.7324 1.281 4.484-5.9454 8.0006-14.064 4.5156-6.871-3.097-4.592-9.123 2.205-11.666 0.9606-0.41644 1.9334-0.59611 2.8887-0.58203zm-271.61 0.40039c2.618-0.0743 4.9232 2.7027 4.959 5.375 1.785 36.023-36.255 6.5519-6.7969-4.8301 0.6133-0.35718 1.2337-0.52778 1.8379-0.54492zm422.16 8.127c12.485 0.0398 22.942 5.7886-4.6386 20.051-9.144-5.622-18.846-13.374-8.791-17.645 3.3496-1.5646 8.5442-2.4218 13.43-2.4062zm-268.68 8.2324c-4.387-0.0234-8.827 2.4934-10.994 9.2969-2.841 8.68 4.6907 12.484 14.389 9.1074 15.648-6.0115 6.2567-18.353-3.3945-18.404zm-574.29 3.0859c-13.405 0.0672-19.627 28.169 14.27 17.973 1.323-5.167-1.7361-10.29-5.2891-13.799-3.1066-2.9944-6.1983-4.1878-8.9805-4.1738zm264.43 2.0721c-7.6569 0.52864-8.4034 18.157 4.2988 27.875 36.564-2.449 26.058-26.518-3.5371-27.873-0.2612-0.0194-0.5147-0.019-0.7617-0.002zm-408.42 0.53516c-11.584-0.25208-28.586 18.13 3.0586 24.676 2.936-3.35 3.7915-7.8717 4.6465-12.096 1.11-9.0443-2.8142-12.474-7.7051-12.58zm1032 0.15625c9.1286 0.0922 19.461 19.101 0.6582 18.621-12.112-0.031-9.349-15.31-2.459-18.375 0.5889-0.17337 1.1923-0.25224 1.8008-0.24609zm-1000.3 0.39062c-13.091-0.54239-22.851 31.886 5.6758 30.707 3.5-4.876 8.3505-10.255 7.2305-16.709-3.8093-9.9738-8.5427-13.817-12.906-13.998zm639.68 0.94531c-5.0914-0.1631-12.098 6.1719-12.143 12.762 0.961 4.744 6.2869 8.1288 11.004 7.4238 5.911-1.997 8.6025-13.383 4.7695-18.383-0.9303-1.2018-2.2053-1.7571-3.6308-1.8027zm-392.07 2.8106c-5.0041-0.13497-10.4 2.0218-14.973 7.9238-9.262 12.027 11.492 20.171 25.322 13.754 12.662-6.0217 2.4389-21.333-10.35-21.678zm251.67 0.0742c14.601 0.34734 12.445 21.852 4.8281 28.736-10.912 10.012-37.007-20.909-9.9102-28.127 1.8816-0.45656 3.5716-0.6453 5.0821-0.60937zm540.39 3.6113c6.299-0.018 13.726 3.3575 11.219 13.258-5.839 21.469-29.67-9.2572-15.264-12.74 1.1975-0.327 2.5913-0.51343 4.0449-0.51758zm-844.92 0.21679c-2.6016-0.0507-5.1488 1.8986-5.3613 7.7871 0.179 15.645 13.768 9.3309 11.047-3.5801-0.429-2.1055-3.0839-4.1563-5.6855-4.207zm-131.36 0.38479c-5.5682-0.1038-11.073 6.8592-11.926 16.156-2.234 20.545 26.952 2.7919 20.066-9.4961-2.2911-4.6131-5.224-6.6058-8.1407-6.6602zm743.14 0.25781c2.7079 0.21267 4.6237 3.6344 4.9316 6.2344 1.772 6.049-7.0733 10.581-11.402 6.8691-2.531-4.347 0.4225-10.334 4.4785-12.688 0.6994-0.34219 1.3673-0.46509 1.9922-0.41602zm-467.84 0.25c-4.1185 0.189-7.4142 3.3971-5.5957 11.205 2.993 14.566 17.219 4.875 16.127-4.293-1.4715-4.27-6.4127-7.1011-10.531-6.9121zm595.76 4.4902c9.4803 0.36249 15.502 25.163 4.7715 22.912-13.699-2.696-13.021-19.691-6.709-22.643 0.6589-0.20831 1.3055-0.2937 1.9375-0.26953zm-343.09 3.2852c-4.707 0.20658-10.36 5.1924-11.709 10.484-1.85 6.724 9.3049 13.085 15.254 10.148 5.428-3.186 5.2753-14.558 0.6523-19.08-1.1642-1.1588-2.6282-1.6216-4.1973-1.5527zm-487.73 6.6094c-5.6638 0.28615-11.54 3.5598-11.113 8.4336 0.74 5.105 5.1747 9.1254 9.9277 10.65 7.4 2.644 13.557-9.9122 9.7442-16.074-1.8375-2.2778-5.1604-3.1814-8.5586-3.0098zm334.35 0.67969c1.5147-0.0223 3.0169 0.28711 4.1738 1.334 10.804 9.944-6.4068 20.83-16.842 16.215-6.885-2.844-2.288-13.954 10-17.238 0.8464-0.16537 1.7592-0.29719 2.668-0.31054zm536.32 0.8125c5.193-0.027 8.0934 4.5523 9.3692 12.09-3.404 2.91-6.7636 5.8718-10.141 8.7988-7.663-6.248-13.185-15.612-5.211-19.266 2.2653-1.0935 4.2514-1.614 5.9824-1.623zm-266.78 0.23242c-7.1579 0.0327-14.496 9.7172-9.3574 17.58 5.985 9.42 42.327 12.291 13.236-16.533-1.2328-0.72875-2.5534-1.0529-3.8789-1.0469zm52.174 4.7363c3.9098-0.0145 7.8356 0.98384 11.389 2.5898 17.344 8.057 7.598 34.685-3.791 35.092-14.942 0.088-31.217-31.496-12.883-36.996 1.7331-0.46281 3.508-0.67894 5.2852-0.68554zm-287.82 1.5605c7.3807-0.2969 13.732 8.9944 7.0644 13.531-14.878 10.277-32.208-5.7554-10.256-12.775 1.0615-0.47562 2.1371-0.71344 3.1915-0.75586zm-334.37 4.0703c-7.179-0.16619-13.048 2.4035-10.078 9.1699 2.001 5.978 8.6661 7.822 13.119 11.543 29.142-10.105 10.664-20.396-3.041-20.713zm668.88 1.8164c7.751-0.231 13.232 9.9668-2.0371 13.174-5.342 1.245-4.4069-9.7178 2.0371-13.174zm-605.19 2.7363c-3.3694-0.20635-5.9417 1.4345-6.7832 6.0644-3.563 22.029 25.6 21.74 28.338 9.1172 2.338-9.908-10.31-10.312-12.688-11.887-3.1444-1.8568-6.2466-3.1344-8.8672-3.2949zm836.08 4.1758c17.241 0.37946 16.514 13.285 11.205 21.842-3.752 5.165-16.947 0.81029-20.174-5.0957-5.443-8.98-11.078-13.632 0.4394-16.092 3.2355-0.50625 6.0663-0.70851 8.5293-0.6543zm-447.02 3.75c-3.958 0.0856-7.7212 2.6178-9.2344 9.3984-1.269 5.529 7.6796 9.3885 16.268 6.3555 11.321-4.2928 1.6745-15.942-7.0332-15.754zm63.789 1.5c-3.7888 0.009-7.4371 2.5871-9.4238 9.502-3.05 10.42 6.985 13.734 15.871 11.26 13.839-4.0322 3.2352-20.786-6.4473-20.762zm-375.46 0.53906c2.2061-0.0106 4.4505 0.99922 6.2325 2.2539 13.889 9.987 4.472 22.051-10.043 17.775-9.77-2.875-5.721-15.524 0.873-19.311 0.9397-0.49875 1.9348-0.71394 2.9375-0.71875zm127.01 1.4531c8.8339-0.11759 11.804 8.4868 10.039 18.373-7.251 34.382-46.945-10.84-12.971-18.049 1.0406-0.2071 2.0177-0.31206 2.9316-0.32422zm574.53 3.8438c2.0842 0.0721 4.0951 0.80812 5.252 2.6875 10.102 15.013-15.968 20.932-20.756 12.662-2.973-5.179 3.8378-12.571 11.842-14.865 1.1344-0.33075 2.4116-0.52763 3.6621-0.48437zm24.086 0.35937c6.136 1.111 10.881 5.9791 13.447 11.455 6.631 15.136-14.051 14.959-18.332-0.24805-1.032-4.435 2.0897-8.2 4.8847-11.207zm-651.78 2.582c2.5138 0.13458 5.0127 0.95297 7.1621 2.2148 10.588 6.239-6.4218 19.396-16.092 14.945-5.82-2.612-1.9681-13.664 4.4629-16.611 1.4449-0.46275 2.9585-0.62957 4.4668-0.54883zm505.08 0.58204c-4.0611 0.12307-6.1554 3.6379-4.7364 8.2188 6.206 21.503 29.192 5.8466 11.348-6.0664-2.5134-1.5647-4.7654-2.2083-6.6113-2.1523zm-534.31 5.8574c20.928 0.53505-2.2974 39.522-16.217 32.5-13.182-13.827-0.5453-30.716 12.803-32.289 1.2492-0.16973 2.3848-0.23725 3.4141-0.21093zm-74.01 3.5625c5.9094 0.005 14.882 10.552 17.611 16.426-16.368 27.542-35.519 4.7894-21.1-14.557 0.9229-1.3088 2.1246-1.8702 3.4883-1.8691zm712.64 11.605c5.4988 0.11596 10.883 5.4186 10.51 11.07-0.908 33.84-39.201-0.39572-14.266-10.262 1.2118-0.58519 2.4869-0.83536 3.7559-0.80859zm-156.96 0.3125c10.651-0.01 19.164 10.394 5.3437 23.668-21.412 19.487-24.046-18.631-9.9805-23.004 1.5499-0.4485 3.1152-0.66263 4.6368-0.66406zm-46.346 9.791c12.573-0.0225 25.598 26.363 17.699 37.129-4.304 5.719-17.786 1.0999-22.043-7.2051-4.836-9.076-7.7742-26.898 1.8418-29.555 0.8279-0.24868 1.6637-0.36764 2.502-0.36914zm267.09 9.1562c8.4709 0.0168 12.459 5.2908 11.289 13.609-2.195 18.865-44.69-7.6971-15.193-13.289 1.3911-0.21862 2.6942-0.3227 3.9043-0.32031zm-669.91 1.084c14.901-0.50656 13.928 19.159 7.5234 26.57-10.362 12.259-33.709-19.64-12.67-25.729 1.8928-0.52003 3.605-0.78939 5.1465-0.84179zm505.25 4.541c-2.8322-0.11434-5.4983 2.28-6.9082 8.9453-2.693 13.154 8.4395 13.844 13.686 11.611 8.7846-3.5952 0.4604-20.264-6.7773-20.557zm-142.72 1.6914c17.924-0.30522 19.558 19.6 14.598 25.822-11.194 12.773-47.894-18.209-20.695-25.041 2.2136-0.50166 4.2434-0.74968 6.0977-0.78125zm258.01 1.8398c8.7 1.95 8.3548 13.064 10.008 21.268-19.894 13.42-25.97-4.2955-16.004-17.521 1.473-1.843 3.4661-3.7731 5.9961-3.7461zm-66.609 6.4336c-4.7964 0.14542-10.656 3.4527-16.644 11.879-11.263 16.506 2.6014 26.499 20.439 14.303 12.964-9.1329 7.5649-26.526-3.7949-26.182zm-231.73 0.97656c26.725 0.19951-9.8294 39.038-19.469 12.824-3.001-8.204 4.2019-10.631 13.254-12.318 2.3709-0.36088 4.4332-0.51916 6.2148-0.50586zm353.4 17.736c18.358 0.12929 40.644 42.622 12.801 43.195-11.999 0.156-27.018-1.3304-27.184-13.357-0.175-8.144 6.949-28.469 11.709-29.539 0.8774-0.20859 1.7709-0.30518 2.6738-0.29882zm-385.98 0.89648c2.7265-0.0702 5.3947 1.4094 7.4219 3.1856 16.038 14.268 3.9379 31.054-12.037 19.213-6.534-4.915-4.0905-19.445 2.7265-22.088 0.6283-0.19669 1.2595-0.29435 1.8887-0.31055zm322.18 1.3438c3.7827-0.0636 7.6488 2.5099 10.82 4.6992-0.461 9.642 2.4117 25.597-14.443 26.391-9.046 0.36-9.5641-13.624-5.6621-22.688 2.6732-6.2367 5.9475-8.3462 9.2851-8.4023zm-176.52 5.7266c7.4278-0.0347 14.55 19.896 6.793 23.256-2.25 0.689-13.682 0.31683-15.307-2.5762-3.102-5.212 1.1009-16.421 6.2149-19.988 0.7588-0.47138 1.5304-0.68782 2.2988-0.69141zm203.72 0.49414c3.3545 0.0123 6.5306 2.217 8.752 4.6602 15.959 17.945-1.4514 31.631-17.441 19.158-8.08-6.041-2.0164-20.207 6.3476-23.453 0.7836-0.25463 1.5677-0.36807 2.3418-0.36524zm-658.08 5.998c14.394-0.18263 24.139 20.578 17.053 27.537-13.945 13.3-56.512-15.419-21.656-26.77 1.575-0.5056 3.1145-0.74869 4.6035-0.76758zm597.97 4.5996c-3.1548 0.009-6.4926 3.8681-7.9101 13.68-27.84-19.599-19.163 10.631 6.2441 21.551 11.12-12.149 14.315-20.655 6.1719-32.377-1.2506-1.8057-2.8533-2.8584-4.5059-2.8535zm-148.29 29.958c11.062-0.24927 0.965 24.438-12.871 6.1758 5.8577-4.4283 10.052-6.1122 12.871-6.1758zm-480.1 0.17774c17.799-0.44593 19.352 15.062 14.885 18.695-15.271 12.497-48.724-11.73-20.941-18.014 2.2003-0.41841 4.2153-0.63551 6.0566-0.68164zm512.24 3.2285c10.295-0.059 22.374 12.988 16.615 19.822-11.253 13.904-50.628-5.6964-20.861-18.939 1.3408-0.59975 2.7753-0.87439 4.2461-0.88282zm175.67 3.6719c9.9928-0.006 7.3761 14.041 2.498 27.57-49.995-3.924-19.816-22.262-7.582-26.664 1.9724-0.61688 3.6564-0.9054 5.084-0.90625zm39.58 9.5723c3.6771 0.0963 7.319 1.7308 10.486 3.5098 24.032 14.867-1.7164 27.529-12.527 17.732-1.592-3.386-10.703-17.928-1.6308-20.773 1.2167-0.3615 2.4461-0.50084 3.6719-0.46875zm-683.48 10.945c2.6371-0.10543 5.4326 0.75215 6.3184 3.4102 1.211 9.457-23.021 24.844-25.068 15.898-1.952-7.268 7.9112-16.595 16.242-18.914 0.7673-0.21825 1.6288-0.35939 2.5078-0.39453zm-62.441 4.4629c15.433-0.55426 0.7567 22.2-10.051 16.617-5.35-2.98 0.2238-14.362 6.5528-16.18 1.3065-0.25944 2.4691-0.40055 3.498-0.4375zm500.95 3.3809c21.486 0.54198 18.578 26.173-6.8984 33.34-23.172 6.068-21.258-26.919-3.8106-31.91 4.0705-1.0736 7.6395-1.5071 10.709-1.4297zm220.2 2.0371c10.299 0.52065 11.949 33.219-7.3047 23.615-6.179-3.841-3.3572-18.455 3.8438-22.662 1.237-0.71728 2.3955-1.007 3.4609-0.95312zm-176.65 2.207c12.118 0.15219 25.709 10.566 5.4746 16.16-22.596 4.575-17.46-13.225-10.475-15.553 1.5681-0.44113 3.2689-0.62917 5-0.60742zm-512.88 14.574c3.429 4.664 8.3412 8.7203 9.5312 14.654 1.712 9.441-15.886 18.872-24.978 21.055-8.066 1.912-11.872-22.195 4.6035-31.645 3.307-2.055 7.0798-3.1744 10.844-4.0644zm626.2 3.332c-4.9919-0.23699-9.015 2.3185-9.3828 8.7832-1.135 15.993 18.351 38.449 27.738 21.416 8.2912-15.644-7.3734-29.678-18.356-30.199zm97.912 4.332c10.177 0.0614 7.8456 15.851 1.9668 18.346-16.123 7.111-27.876-11.754-5.5371-17.828 1.3304-0.36244 2.5175-0.52393 3.5703-0.51758zm-773.58 6.5957c9.3667-0.14798 18.152 8.7802 5.3008 25.639-1-0.769-25.374-13.112-14.082-22.422 2.4717-2.1082 5.659-3.1675 8.7812-3.2168zm549.94 2.7617c15.286 0.13551 23.658 9.8415 18.524 16.105-9.699 9.484-58.271-7.6643-27.686-15.113 3.2631-0.71391 6.3313-1.0173 9.1621-0.99219zm176.68 3.1074c3.9548-0.0484 7.6875 2.3577 10.48 5.0274 8.452 7.578 0.9723 26.608-8.5547 19.062-8.484-6.518-11.103-21.635-3.6328-23.914 0.572-0.1135 1.142-0.16886 1.707-0.17578zm25.588 17.594c10.395-0.13784 15.544 11.48 4.1133 10.631-7.753-1.717-12.638-9.1946-7.4961-10.184 1.1751-0.29269 2.3074-0.43301 3.3828-0.44727zm-244.05 11.993c2.7463 0.035 5.5169 1.1152 7.8633 2.4785 18.453 11.218-3.9 25.874-15.166 21.4-7.979-3.257-4.6138-19.085 3.6152-23.207 1.1957-0.48781 2.4393-0.6878 3.6875-0.67187zm44.559 3.8594c10.629-0.62242 13.242 28.696-7.0703 26.801-9.327-1.277-5.9882-21.262 4.8418-26.258 0.7755-0.32575 1.5199-0.50147 2.2285-0.54297zm216.55 10.908c17.014 0.21403 4.4841 33.403-6.1933 21.922-5.82-5.908-6.9324-18.636-0.07-20.844 2.4271-0.7696 4.5035-1.1003 6.2636-1.0781zm-49.152 0.082c29.039 0.82001 19.968 33.005-6.6035 38.426-8.514-9.244-19.386-22.98-10.475-32.324 4.32-4.612 10.959-6.1456 17.078-6.1016zm44.455 63.301c4.7388 0.14459 7.294 5.6004 6.9511 12.061-2.086 25.574-36.097-0.58176-10.572-11.26 1.3173-0.58538 2.5275-0.83415 3.6211-0.80078zm-40.289 4.877c13.248-0.0898 12.233 19.197 6.3184 25.506-8.197 8.23-33.712-17.994-10.898-24.82 1.6861-0.45985 3.2096-0.67626 4.5801-0.68555zm35.98 43.123c3.3715 0.06 6.7802 1.4693 8.7382 4.1973 3.685 7.419-8.7607 20.232-17.928 18.234-4.762-0.737-5.6331-16.84 4.7539-21.674 1.3778-0.5344 2.903-0.7849 4.4356-0.7578zm-73.44 2.5859c-4.6259-0.1234-8.5139 2.4305-7.7598 9.0879 0.919 8.78 7.6533 16.718 15.156 10.996 12.955-9.8509 1.4349-19.848-7.3965-20.084zm31.992 26.803c6.0468-0.042 12.98 9.0317 13.549 19.283 1.285 25.91-38.227-4.9906-16.064-18.684 0.8065-0.4011 1.6518-0.5937 2.5156-0.5996zm42.217 18.029c8.7943-0.3312 8.2692 11.374 2.3516 12.135-7.393-0.214-12.872-9.0554-6.7012-11.189 1.6482-0.6056 3.0933-0.898 4.3496-0.9453zm-22.631 23.918c14.919-0.4255 29.439 38.271 4.5078 30.461-18.833-6.314-20.982-23.641-7.4843-29.83 0.9865-0.4015 1.9819-0.6025 2.9765-0.6309zm-56.539 26.197c-5.5534-0.1932-10.496 3.1151-11.371 12.092-1.647 19.37 13.285 27.307 25.846 12.24 8.9617-10.829-3.8726-23.963-14.475-24.332zm54.633 26.033c4.9214-0.1824 10.539 2.7872 11.141 7.9785 2.68 22.078-26.169-3.938-13.191-7.705 0.658-0.1576 1.3477-0.2474 2.0508-0.2735zm-14.016 54.785c5.5345 0.1085 8.1172 13.087 1.791 16.326-11.98 7.451-12.551-12.242-2.9356-16.17 0.3935-0.1139 0.7756-0.1635 1.1446-0.1562zm-10.906 56.633c1.6533-0.1991 3.0809 1.2377 4.4004 2.1328 13.816 11.009-2.5128 19.755-8.0508 13.508-5.141-5.768-5.1652-13.021 2.9278-15.449 0.2457-0.1015 0.4864-0.163 0.7226-0.1914zm-17.08 38.859c7.217-0.4539 12.84 15.654 2.5137 29.35-14.752 18.44-21.615-20.629-4.7871-28.656 0.7648-0.4224 1.5268-0.6464 2.2734-0.6933zm-33.99 66.779c0.459 1.393 0.5919 3.0673 1.7559 4.1523 2.486 0.97 5.7388 0.7317 7.4668 3.1387 3.309 5.083-2.3653 17.39-10.783 17.502 0.512-8.261 1.5336-16.505 1.5606-24.793zm-27.894 56.129c7.346-0.012 9.1598 6.5264 8.2148 12.576-2.725 18.551-42.244-2.2505-12.883-11.852 1.7575-0.4961 3.3076-0.7225 4.668-0.7246zm-27.912 45c0.5727 0.02 1.0519 0.1748 1.4043 0.4824 25.584 19.452-25.696 29.316-16.772 11.611 2.7063-5.8485 11.358-12.237 15.367-12.094z"/>
</g>
</svg>
